<?xml version="1.0" encoding="UTF-8" standalone="no"?>
<!-- Created with Inkscape (http://www.inkscape.org/) -->

<svg
   width="55.992294mm"
   height="34.451561mm"
   viewBox="0 0 55.992294 34.451561"
   version="1.1"
   id="svg5"
   sodipodi:docname="text236.svg"
   inkscape:version="1.2.2 (b0a8486541, 2022-12-01)"
   xmlns:inkscape="http://www.inkscape.org/namespaces/inkscape"
   xmlns:sodipodi="http://sodipodi.sourceforge.net/DTD/sodipodi-0.dtd"
   xmlns="http://www.w3.org/2000/svg"
   xmlns:svg="http://www.w3.org/2000/svg">
  <sodipodi:namedview
     id="namedview7"
     pagecolor="#505050"
     bordercolor="#eeeeee"
     borderopacity="1"
     inkscape:showpageshadow="0"
     inkscape:pageopacity="0"
     inkscape:pagecheckerboard="0"
     inkscape:deskcolor="#505050"
     inkscape:document-units="mm"
     showgrid="false"
     inkscape:zoom="1.6838104"
     inkscape:cx="-1.7816733"
     inkscape:cy="55.528818"
     inkscape:window-width="1920"
     inkscape:window-height="1080"
     inkscape:window-x="0"
     inkscape:window-y="0"
     inkscape:window-maximized="1"
     inkscape:current-layer="layer1" />
  <defs
     id="defs2" />
  <g
     inkscape:label="Layer 1"
     inkscape:groupmode="layer"
     id="layer1"
     transform="translate(-73.698259,-70.808309)">
    <g
       aria-label="Viamagus  Demo NEXT.js app"
       id="text236"
       style="font-size:3.175px;opacity:1;fill:#000000;fill-opacity:1;stroke:#000000;stroke-width:0.264583"
       transform="translate(-2.4755614,-1.3323161)"
       inkscape:export-filename="text236.svg"
       inkscape:export-xdpi="96"
       inkscape:export-ydpi="96">
      <g
         id="path1817"
         style="fill:#000000;fill-opacity:1">
        <path
           style="color:#000000;-inkscape-font-specification:'Inter, Medium';fill:#000000;fill-opacity:1;stroke:none;-inkscape-stroke:none"
           d="m 80.815933,72.560613 1.999408,5.850901 h 0.08068 l 1.999409,-5.850901 h 1.171583 l -2.5852,7.18384 H 82.22955 l -2.5852,-7.18384 z"
           id="path1864" />
        <path
           style="color:#000000;-inkscape-font-specification:'Inter, Medium';fill:#000000;fill-opacity:1;stroke:none;-inkscape-stroke:none"
           d="m 79.457031,72.427734 2.679688,7.449219 h 1.4375 l 2.68164,-7.449219 h -1.455078 l -1.945312,5.691407 -1.945313,-5.691407 h -0.09375 z m 0.376953,0.265625 h 0.888672 l 1.998047,5.84961 h 0.269531 l 2,-5.84961 h 0.888672 l -2.490234,6.917969 h -1.066406 z"
           id="path1866" />
      </g>
      <g
         id="path1819"
         style="fill:#000000;fill-opacity:1">
        <path
           style="color:#000000;-inkscape-font-specification:'Inter, Medium';fill:#000000;fill-opacity:1;stroke:none;-inkscape-stroke:none"
           d="m 87.017601,79.744453 v -5.38788 h 1.048812 v 5.38788 z m 0.529667,-6.219213 q -0.273603,0 -0.470036,-0.182402 -0.192925,-0.18591 -0.192925,-0.441974 0,-0.259573 0.192925,-0.441975 0.196433,-0.18591 0.470036,-0.18591 0.273604,0 0.466529,0.18591 0.196433,0.182402 0.196433,0.441975 0,0.256064 -0.196433,0.441974 -0.192925,0.182402 -0.466529,0.182402 z"
           id="path1870" />
        <path
           style="color:#000000;-inkscape-font-specification:'Inter, Medium';fill:#000000;fill-opacity:1;stroke:none;-inkscape-stroke:none"
           d="m 87.546875,72.140625 c -0.212365,0 -0.407321,0.07764 -0.560547,0.222656 -0.151381,0.143124 -0.234375,0.331286 -0.234375,0.53711 0,0.203933 0.08391,0.392111 0.234375,0.537109 v 0.002 c 0.153398,0.142441 0.348747,0.21875 0.560547,0.21875 0.2118,0 0.407291,-0.0757 0.558594,-0.21875 0.152978,-0.144783 0.236328,-0.334525 0.236328,-0.539062 0,-0.205517 -0.08372,-0.394435 -0.236328,-0.53711 -0.151117,-0.145622 -0.346228,-0.222656 -0.558594,-0.222656 z m 0,0.263672 c 0.152439,0 0.268884,0.04813 0.375,0.15039 h 0.002 v 0.002 c 0.108026,0.100309 0.154297,0.204072 0.154297,0.34375 0,0.136881 -0.04537,0.242606 -0.154297,0.345703 -0.105931,0.100153 -0.223948,0.146484 -0.376953,0.146484 -0.152052,0 -0.268991,-0.04507 -0.376953,-0.144531 l -0.002,-0.002 c -0.105219,-0.102233 -0.152344,-0.20915 -0.152344,-0.345703 0,-0.140274 0.04649,-0.245625 0.152344,-0.345704 0.108684,-0.102861 0.226468,-0.15039 0.378906,-0.150389 z m -0.662109,1.820312 v 5.652344 h 0.132812 1.181641 v -5.652344 z m 0.265625,0.263672 h 0.783203 v 5.123047 h -0.783203 z"
           id="path1872" />
      </g>
      <g
         id="path1821"
         style="fill:#000000;fill-opacity:1">
        <path
           style="color:#000000;-inkscape-font-specification:'Inter, Medium';fill:#000000;fill-opacity:1;stroke:none;-inkscape-stroke:none"
           d="m 91.044471,79.863716 q -0.512129,0 -0.926042,-0.189417 -0.413912,-0.192926 -0.655946,-0.55773 -0.238526,-0.364804 -0.238526,-0.894472 0,-0.456006 0.175387,-0.750655 0.175386,-0.29465 0.473544,-0.466529 0.298157,-0.171879 0.666469,-0.259572 0.368313,-0.08769 0.750656,-0.133294 0.484067,-0.05612 0.785732,-0.0912 0.301665,-0.03859 0.438467,-0.122771 0.136802,-0.08419 0.136802,-0.273603 v -0.02455 q 0,-0.459513 -0.259573,-0.71207 -0.256064,-0.252557 -0.764686,-0.252557 -0.529668,0 -0.834841,0.235019 -0.301665,0.23151 -0.41742,0.515637 l -0.985673,-0.224495 q 0.175386,-0.491083 0.512129,-0.792748 0.34025,-0.305173 0.782225,-0.441975 0.441974,-0.140309 0.929549,-0.140309 0.322712,0 0.684008,0.07717 0.364805,0.07366 0.680501,0.273603 0.319204,0.199941 0.522652,0.571761 0.203449,0.368312 0.203449,0.957611 v 3.577889 h -1.024259 v -0.736624 h -0.04209 q -0.101725,0.203449 -0.305173,0.399882 -0.203449,0.196433 -0.522653,0.326219 -0.319204,0.129786 -0.764686,0.129786 z m 0.228003,-0.841856 q 0.434959,0 0.74364,-0.171879 0.312188,-0.171879 0.473544,-0.44899 0.164863,-0.280619 0.164863,-0.599822 v -0.694532 q -0.05612,0.05612 -0.217479,0.105232 -0.157848,0.0456 -0.361297,0.08068 -0.203449,0.03157 -0.396374,0.05963 -0.192925,0.02455 -0.322711,0.04209 -0.305173,0.03858 -0.55773,0.129787 -0.249049,0.0912 -0.399882,0.26308 -0.147325,0.168371 -0.147325,0.44899 0,0.389358 0.287634,0.589299 0.287635,0.196433 0.733117,0.196433 z"
           id="path1876" />
        <path
           style="color:#000000;-inkscape-font-specification:'Inter, Medium';fill:#000000;fill-opacity:1;stroke:none;-inkscape-stroke:none"
           d="m 91.613281,74.154297 c -0.337739,0 -0.662682,0.0487 -0.970703,0.146484 -0.311358,0.09663 -0.589793,0.253237 -0.830078,0.46875 -0.242567,0.217299 -0.42577,0.503093 -0.548828,0.847656 l -0.04883,0.140625 1.240234,0.28125 0.04102,-0.103515 c 0.06676,-0.163858 0.190096,-0.317536 0.376953,-0.460938 0.174135,-0.134104 0.420361,-0.207031 0.753906,-0.207031 0.317185,0 0.532344,0.07722 0.671875,0.214844 0.144307,0.140406 0.220703,0.335756 0.220703,0.617187 V 76.125 c 0,0.09443 -0.02073,0.12724 -0.07422,0.160156 -0.06192,0.0381 -0.195121,0.07901 -0.386718,0.103516 -0.20089,0.02336 -0.461294,0.05448 -0.783203,0.0918 h -0.002 c -0.259836,0.03099 -0.515076,0.07707 -0.765625,0.136718 -0.256661,0.06111 -0.490414,0.151943 -0.701171,0.273438 -0.217386,0.125316 -0.393491,0.298641 -0.521485,0.513672 -0.132266,0.222207 -0.193359,0.497395 -0.193359,0.818359 0,0.37297 0.0847,0.69905 0.259765,0.966797 0.174623,0.263199 0.415007,0.467534 0.710938,0.605469 0.294714,0.134869 0.624693,0.201172 0.982422,0.201172 0.309833,0 0.581757,-0.04406 0.814453,-0.138672 0.22529,-0.0916 0.414423,-0.210613 0.564453,-0.355469 0.05356,-0.05171 0.07865,-0.108765 0.123047,-0.162109 v 0.537109 h 1.289062 v -3.710937 c 10e-7,-0.40809 -0.07063,-0.749805 -0.220703,-1.021485 -0.144823,-0.264678 -0.335007,-0.472975 -0.568359,-0.61914 -0.22277,-0.140831 -0.46522,-0.238811 -0.722656,-0.291016 h -0.002 c -0.247995,-0.05284 -0.483911,-0.08008 -0.708985,-0.08008 z m 0,0.263672 c 0.204596,0 0.423255,0.02445 0.65625,0.07422 l 0.002,0.002 c 0.227698,0.04597 0.437558,0.129006 0.634766,0.253906 v 0.002 c 0.192253,0.120422 0.352076,0.290403 0.478516,0.521484 v 0.002 c 0.121193,0.219402 0.185547,0.514937 0.185546,0.892579 V 79.61147 H 92.810547 V 78.875 h -0.25586 l -0.03516,0.07422 c -0.05966,0.119312 -0.152157,0.240525 -0.279297,0.363281 -0.121235,0.117054 -0.280154,0.217382 -0.480468,0.298828 -0.192911,0.07844 -0.430704,0.119141 -0.714844,0.119141 -0.325109,0 -0.613925,-0.05809 -0.871094,-0.175782 -0.255951,-0.119299 -0.453474,-0.288512 -0.601562,-0.511718 -0.142346,-0.218401 -0.216797,-0.4878 -0.216797,-0.820313 0,-0.287043 0.05662,-0.512936 0.158203,-0.683594 0.105854,-0.177835 0.245623,-0.316066 0.425781,-0.419921 0.186785,-0.107677 0.396439,-0.188327 0.630859,-0.244141 0.239917,-0.05712 0.485089,-0.101052 0.734375,-0.130859 0.322721,-0.03741 0.585976,-0.06841 0.78711,-0.0918 0.210623,-0.02694 0.371706,-0.06649 0.492187,-0.140625 0.128916,-0.07934 0.199219,-0.228595 0.199219,-0.386719 v -0.02539 c 0,-0.331251 -0.09704,-0.610304 -0.298828,-0.80664 -0.201887,-0.199122 -0.496444,-0.289063 -0.857422,-0.289063 -0.372678,0 -0.683254,0.08246 -0.916016,0.261719 -0.179379,0.137663 -0.290927,0.3024 -0.382812,0.474609 l -0.730469,-0.166015 c 0.105102,-0.236032 0.220772,-0.455262 0.390625,-0.607422 h 0.002 c 0.212953,-0.190999 0.455156,-0.328242 0.732422,-0.414063 0.281277,-0.08929 0.578265,-0.134765 0.890625,-0.134765 z m 1.173828,2.36914 -0.226562,0.226563 c -0.0061,0.0061 -0.06451,0.04068 -0.160156,0.07031 -0.09936,0.02871 -0.215837,0.0554 -0.347657,0.07813 -0.134551,0.02087 -0.26502,0.04004 -0.392578,0.05859 -0.127829,0.01627 -0.233803,0.03128 -0.320312,0.04297 -0.211813,0.02678 -0.407161,0.07216 -0.585938,0.136719 -0.183133,0.06706 -0.338364,0.165828 -0.455078,0.298828 -0.122201,0.139658 -0.179687,0.326879 -0.179687,0.537109 0,0.292148 0.118948,0.541001 0.34375,0.697266 h 0.002 v 0.002 c 0.218023,0.148893 0.492161,0.21875 0.808593,0.21875 0.307398,0 0.57778,-0.06202 0.806641,-0.189453 v 0.002 c 0.226003,-0.124429 0.403183,-0.293477 0.523438,-0.5 0.120357,-0.205513 0.183593,-0.431079 0.183593,-0.666016 z m -0.265625,0.527344 v 0.486328 c 0,0.190027 -0.04767,0.365013 -0.146484,0.533203 -0.09489,0.162958 -0.231627,0.295648 -0.421875,0.400391 h -0.002 c -0.182713,0.101738 -0.405188,0.154297 -0.677735,0.154297 -0.276773,0 -0.492894,-0.05946 -0.658203,-0.171875 -0.158709,-0.110323 -0.230468,-0.253473 -0.230468,-0.480469 0,-0.163928 0.03905,-0.276491 0.113281,-0.361328 0.0844,-0.09617 0.196771,-0.172025 0.345703,-0.226563 0.157965,-0.05705 0.334213,-0.09838 0.529297,-0.123046 h 0.002 c 0.08602,-0.01163 0.191925,-0.02468 0.320312,-0.04102 l 0.002,-0.002 h 0.002 c 0.129055,-0.01877 0.260459,-0.03749 0.396484,-0.05859 h 0.002 c 0.139446,-0.02404 0.265852,-0.05189 0.376953,-0.08398 v -0.002 c 0.01999,-0.0061 0.02858,-0.01726 0.04687,-0.02344 z"
           id="path1878" />
      </g>
      <g
         id="path1823"
         style="fill:#000000;fill-opacity:1">
        <path
           style="color:#000000;-inkscape-font-specification:'Inter, Medium';fill:#000000;fill-opacity:1;stroke:none;-inkscape-stroke:none"
           d="m 95.099403,79.744453 v -5.38788 h 1.00672 v 0.876934 h 0.06665 q 0.168371,-0.445482 0.550714,-0.694531 0.382343,-0.252557 0.915519,-0.252557 0.540191,0 0.904996,0.252557 0.368312,0.252557 0.543698,0.694531 h 0.05612 q 0.192926,-0.431451 0.613854,-0.687516 0.420926,-0.259572 1.003216,-0.259572 0.73311,0 1.19613,0.459513 0.46653,0.459513 0.46653,1.385555 v 3.612966 h -1.04881 v -3.514749 q 0,-0.547207 -0.29816,-0.792748 -0.29815,-0.245542 -0.71207,-0.245542 -0.512128,0 -0.796254,0.315696 -0.284126,0.312189 -0.284126,0.803271 v 3.434072 h -1.045305 v -3.581396 q 0,-0.438467 -0.273604,-0.705055 -0.273603,-0.266588 -0.71207,-0.266588 -0.298157,0 -0.550714,0.157848 -0.249049,0.154341 -0.403389,0.431452 -0.150833,0.277111 -0.150833,0.641915 v 3.321824 z"
           id="path1882" />
        <path
           style="color:#000000;-inkscape-font-specification:'Inter, Medium';fill:#000000;fill-opacity:1;stroke:none;-inkscape-stroke:none"
           d="m 97.638672,74.154297 c -0.376339,0 -0.709789,0.08948 -0.988281,0.273437 -0.190014,0.123771 -0.294208,0.328449 -0.41211,0.519532 v -0.722657 h -1.271484 v 5.652344 h 0.132812 1.181641 v -3.455078 c 0,-0.22497 0.04586,-0.414795 0.134766,-0.578125 0.09302,-0.166115 0.209937,-0.292624 0.355468,-0.382813 h 0.002 c 0.148531,-0.09283 0.305044,-0.136718 0.480469,-0.136718 0.2655,0 0.462038,0.07544 0.619141,0.228515 0.156438,0.152427 0.234375,0.344581 0.234375,0.609375 v 3.714844 h 1.308594 v -3.566406 c 0,-0.301874 0.08382,-0.532255 0.25,-0.714844 0.162978,-0.181087 0.384987,-0.271484 0.699217,-0.271484 0.24979,0 0.45138,0.07025 0.62696,0.214843 0.16154,0.133038 0.25,0.35063 0.25,0.691407 v 3.646484 h 1.31445 v -3.746094 c 0,-0.639576 -0.16319,-1.140997 -0.50586,-1.478515 -0.33346,-0.330932 -0.77268,-0.498047 -1.28906,-0.498047 -0.40716,0 -0.768779,0.09259 -1.07227,0.279297 -0.256987,0.156334 -0.428133,0.385997 -0.568359,0.636718 -0.125285,-0.252138 -0.275468,-0.48532 -0.501953,-0.640625 -0.268329,-0.185765 -0.599725,-0.27539 -0.980469,-0.27539 z m 0,0.263672 c 0.33951,0 0.612,0.07949 0.830078,0.230468 0.223934,0.153556 0.387694,0.361597 0.496094,0.634766 l 0.0332,0.08203 h 0.232422 l 0.0332,-0.07813 c 0.117963,-0.263807 0.3024,-0.470678 0.5625,-0.628906 0.257414,-0.158742 0.567004,-0.240234 0.935544,-0.240234 0.4611,0 0.81766,0.140123 1.10156,0.421875 0.27937,0.275165 0.42774,0.69587 0.42774,1.291015 v 3.480469 h -0.78321 v -3.380859 c 0,-0.388832 -0.11165,-0.702134 -0.34765,-0.896485 -0.22196,-0.182792 -0.49282,-0.27539 -0.79493,-0.27539 -0.368593,0 -0.678667,0.119534 -0.894523,0.359375 -0.212658,0.233663 -0.318359,0.539677 -0.318359,0.892578 v 3.300781 h -0.78125 v -3.449219 c 0,-0.319827 -0.106086,-0.595804 -0.314453,-0.798828 -0.207701,-0.202375 -0.483613,-0.304687 -0.802735,-0.304687 -0.222116,0 -0.432881,0.0601 -0.621094,0.177734 -0.185765,0.115123 -0.336687,0.278424 -0.449218,0.480469 -0.112209,0.20615 -0.167969,0.443643 -0.167969,0.705078 v 3.189453 h -0.783203 v -5.123047 h 0.742187 v 0.876953 h 0.289063 l 0.0332,-0.08398 c 0.103422,-0.273636 0.265937,-0.479669 0.498047,-0.630859 h 0.002 v -0.002 c 0.231298,-0.152784 0.507235,-0.230468 0.841797,-0.230468 z"
           id="path1884" />
      </g>
      <g
         id="path1825"
         style="fill:#000000;fill-opacity:1">
        <path
           style="color:#000000;-inkscape-font-specification:'Inter, Medium';fill:#000000;fill-opacity:1;stroke:none;-inkscape-stroke:none"
           d="m 105.3946,79.863716 q -0.51213,0 -0.92605,-0.189417 -0.41391,-0.192926 -0.65594,-0.55773 -0.23853,-0.364804 -0.23853,-0.894472 0,-0.456006 0.17539,-0.750655 0.17539,-0.29465 0.47354,-0.466529 0.29816,-0.171879 0.66647,-0.259572 0.36831,-0.08769 0.75066,-0.133294 0.48407,-0.05612 0.78573,-0.0912 0.30167,-0.03859 0.43847,-0.122771 0.1368,-0.08419 0.1368,-0.273603 v -0.02455 q 0,-0.459513 -0.25957,-0.71207 -0.25607,-0.252557 -0.76469,-0.252557 -0.52967,0 -0.83484,0.235019 -0.30167,0.23151 -0.41742,0.515637 l -0.98567,-0.224495 q 0.17538,-0.491083 0.51213,-0.792748 0.34025,-0.305173 0.78222,-0.441975 0.44197,-0.140309 0.92955,-0.140309 0.32271,0 0.68401,0.07717 0.3648,0.07366 0.6805,0.273603 0.3192,0.199941 0.52265,0.571761 0.20345,0.368312 0.20345,0.957611 v 3.577889 h -1.02426 v -0.736624 h -0.0421 q -0.10173,0.203449 -0.30518,0.399882 -0.20344,0.196433 -0.52265,0.326219 -0.3192,0.129786 -0.76468,0.129786 z m 0.228,-0.841856 q 0.43496,0 0.74364,-0.171879 0.31219,-0.171879 0.47354,-0.44899 0.16487,-0.280619 0.16487,-0.599822 v -0.694532 q -0.0561,0.05612 -0.21748,0.105232 -0.15785,0.0456 -0.3613,0.08068 -0.20345,0.03157 -0.39637,0.05963 -0.19293,0.02455 -0.32272,0.04209 -0.30517,0.03858 -0.55772,0.129787 -0.24905,0.0912 -0.39989,0.26308 -0.14732,0.168371 -0.14732,0.44899 0,0.389358 0.28763,0.589299 0.28764,0.196433 0.73312,0.196433 z"
           id="path1888" />
        <path
           style="color:#000000;-inkscape-font-specification:'Inter, Medium';fill:#000000;fill-opacity:1;stroke:none;-inkscape-stroke:none"
           d="m 105.96289,74.154297 c -0.33774,0 -0.66073,0.0487 -0.96875,0.146484 -0.31203,0.09658 -0.59132,0.252852 -0.83203,0.46875 -0.24257,0.217299 -0.42382,0.503092 -0.54688,0.847656 l -0.0508,0.140625 1.24024,0.28125 0.043,-0.103515 c 0.0667,-0.163857 0.18814,-0.317536 0.375,-0.460938 0.17413,-0.134103 0.42036,-0.207031 0.7539,-0.207031 0.31719,0 0.53234,0.07722 0.67188,0.214844 0.1443,0.140406 0.2207,0.335755 0.2207,0.617187 V 76.125 c 0,0.09443 -0.0207,0.12724 -0.0742,0.160156 -0.0619,0.0381 -0.19512,0.07901 -0.38672,0.103516 -0.20088,0.02336 -0.46129,0.05448 -0.7832,0.0918 -0.25984,0.03099 -0.51508,0.07707 -0.76562,0.136718 -0.25667,0.06111 -0.49237,0.151943 -0.70313,0.273438 -0.21738,0.125316 -0.39154,0.298643 -0.51953,0.513672 -0.13227,0.222207 -0.19531,0.497395 -0.19531,0.818359 0,0.372971 0.0847,0.69905 0.25976,0.966797 h 0.002 c 0.17462,0.2632 0.41305,0.467534 0.70898,0.605469 h 0.002 c 0.18735,0.08573 0.40953,0.09793 0.62305,0.128906 l -0.12109,0.07227 h 0.47851 c 0.30983,0 0.58176,-0.04406 0.81445,-0.138672 0.2253,-0.0916 0.41443,-0.210611 0.56446,-0.355469 0.0536,-0.05171 0.0786,-0.108765 0.12304,-0.162109 v 0.537109 h 1.28907 v -3.710937 c 0,-0.40809 -0.0706,-0.749804 -0.22071,-1.021485 h 0.002 c -0.14483,-0.264678 -0.33501,-0.472975 -0.56836,-0.61914 -0.22372,-0.14169 -0.46591,-0.238778 -0.72461,-0.291016 -0.24874,-0.05313 -0.48525,-0.08008 -0.71094,-0.08008 z m 0,0.263672 c 0.2046,0 0.42325,0.02445 0.65625,0.07422 l 0.002,0.002 c 0.2277,0.04597 0.43756,0.129005 0.63477,0.253906 l 0.002,0.002 c 0.19225,0.120422 0.35012,0.290403 0.47657,0.521484 v 0.002 c 0.12119,0.219402 0.1875,0.514937 0.1875,0.892579 v 3.445312 h -0.75977 V 78.875 h -0.25586 l -0.0371,0.07422 c -0.0597,0.119313 -0.15215,0.240525 -0.2793,0.363281 -0.12122,0.117052 -0.28015,0.217382 -0.48046,0.298828 -0.19291,0.07844 -0.43071,0.119141 -0.71485,0.119141 -0.32441,0 -0.61238,-0.0586 -0.86914,-0.175782 h -0.002 c -0.25436,-0.118844 -0.45198,-0.288135 -0.59961,-0.509765 -0.14297,-0.218658 -0.2168,-0.489013 -0.2168,-0.822266 0,-0.287043 0.0547,-0.512936 0.15625,-0.683594 0.10586,-0.177837 0.24563,-0.316066 0.42578,-0.419921 0.18679,-0.107677 0.39644,-0.188327 0.63086,-0.244141 0.24053,-0.05727 0.48637,-0.101046 0.73633,-0.130859 0.32272,-0.03741 0.58403,-0.06841 0.78516,-0.0918 h 0.002 c 0.21063,-0.02694 0.36975,-0.06649 0.49023,-0.140625 0.12892,-0.07934 0.19922,-0.228595 0.19922,-0.386719 v -0.02539 c 0,-0.331251 -0.097,-0.610304 -0.29883,-0.80664 -0.20189,-0.199121 -0.49644,-0.289063 -0.85742,-0.289063 -0.37268,0 -0.68325,0.08246 -0.91601,0.261719 -0.17939,0.137663 -0.29093,0.302399 -0.38282,0.474609 l -0.73046,-0.166015 c 0.10511,-0.236116 0.22267,-0.455223 0.39257,-0.607422 0.21296,-0.190999 0.45516,-0.328242 0.73243,-0.414063 h 0.002 c 0.28127,-0.08929 0.57631,-0.134765 0.88867,-0.134765 z m 1.17383,2.36914 -0.22656,0.226563 c -0.006,0.0061 -0.0645,0.04068 -0.16016,0.07031 -0.0994,0.02871 -0.21388,0.0554 -0.3457,0.07813 -0.13456,0.02087 -0.26698,0.04004 -0.39453,0.05859 -0.12684,0.01615 -0.23432,0.03135 -0.32032,0.04297 -0.21181,0.02678 -0.40716,0.07216 -0.58593,0.136719 -0.18314,0.06706 -0.33641,0.16583 -0.45313,0.298828 -0.1222,0.139658 -0.18164,0.32688 -0.18164,0.537109 0,0.292148 0.1209,0.541 0.3457,0.697266 v 0.002 c 0.21803,0.148892 0.49217,0.21875 0.8086,0.21875 0.3074,0 0.57778,-0.06202 0.80664,-0.189453 v 0.002 c 0.22514,-0.123955 0.40321,-0.292606 0.52344,-0.498047 0.12101,-0.205968 0.18359,-0.432391 0.18359,-0.667969 z m -0.26367,0.527344 v 0.486328 c 0,0.190026 -0.0477,0.365013 -0.14649,0.533203 h -0.002 c -0.0949,0.162957 -0.23163,0.295648 -0.42188,0.400391 -0.18271,0.101737 -0.40714,0.154297 -0.67968,0.154297 -0.27754,0 -0.49271,-0.05886 -0.65821,-0.171875 -0.1587,-0.110323 -0.23046,-0.253473 -0.23046,-0.480469 0,-0.163929 0.041,-0.276492 0.11523,-0.361328 0.084,-0.09525 0.19628,-0.172292 0.34375,-0.226563 0.15796,-0.05705 0.33421,-0.09838 0.5293,-0.123046 h 0.002 c 0.086,-0.01163 0.19387,-0.02468 0.32227,-0.04102 v -0.002 h 0.002 c 0.12905,-0.01877 0.26046,-0.03749 0.39648,-0.05859 h 0.002 0.002 c 0.13945,-0.02404 0.2639,-0.05189 0.375,-0.08398 v -0.002 h 0.002 c 0.0201,-0.0061 0.0285,-0.01723 0.0469,-0.02344 z"
           id="path1890" />
      </g>
      <g
         id="path1827"
         style="fill:#000000;fill-opacity:1">
        <path
           style="color:#000000;-inkscape-font-specification:'Inter, Medium';fill:#000000;fill-opacity:1;stroke:none;-inkscape-stroke:none"
           d="m 111.70851,81.877156 q -0.64192,0 -1.10494,-0.168371 -0.45951,-0.168372 -0.75065,-0.445483 -0.29114,-0.277111 -0.43496,-0.606838 l 0.90149,-0.371819 q 0.0947,0.15434 0.25255,0.326219 0.16136,0.175387 0.43496,0.298157 0.27711,0.122771 0.71207,0.122771 0.59632,0 0.98568,-0.291142 0.38935,-0.287634 0.38935,-0.919026 v -1.059336 h -0.0666 q -0.0947,0.171879 -0.27361,0.382343 -0.17538,0.210464 -0.48406,0.364804 -0.30868,0.154341 -0.80327,0.154341 -0.63841,0 -1.15054,-0.298158 -0.50862,-0.301665 -0.80678,-0.887457 -0.29465,-0.589299 -0.29465,-1.448694 0,-0.859395 0.29114,-1.473248 0.29465,-0.613854 0.80678,-0.940073 0.51213,-0.329727 1.16106,-0.329727 0.50161,0 0.81029,0.168371 0.30868,0.164864 0.48056,0.385851 0.17538,0.220987 0.27009,0.389358 h 0.0772 v -0.873426 h 1.02777 v 5.507143 q 0,0.694532 -0.32271,1.140014 -0.32271,0.445482 -0.87343,0.659454 -0.54721,0.213972 -1.23472,0.213972 z m -0.0105,-3.083299 q 0.45249,0 0.76468,-0.210464 0.3157,-0.213971 0.47705,-0.610345 0.16487,-0.399882 0.16487,-0.957612 0,-0.543699 -0.16136,-0.957611 -0.16135,-0.413913 -0.47354,-0.645424 -0.31219,-0.235018 -0.7717,-0.235018 -0.47355,0 -0.78924,0.245542 -0.3157,0.242033 -0.47706,0.659454 -0.15784,0.41742 -0.15784,0.933057 0,0.529668 0.16135,0.92955 0.16136,0.399881 0.47705,0.624376 0.31921,0.224495 0.78574,0.224495 z"
           id="path1894" />
        <path
           style="color:#000000;-inkscape-font-specification:'Inter, Medium';fill:#000000;fill-opacity:1;stroke:none;-inkscape-stroke:none"
           d="m 111.47266,74.154297 c -0.45503,0 -0.86962,0.117977 -1.23243,0.351562 -0.36234,0.231451 -0.64853,0.565137 -0.85351,0.992188 V 75.5 c -0.20434,0.430832 -0.30469,0.941429 -0.30469,1.529297 0,0.588048 0.10066,1.091939 0.3086,1.507812 v 0.002 c 0.2084,0.409448 0.49578,0.724964 0.85742,0.939454 v 0.002 h 0.002 c 0.36208,0.210797 0.7706,0.316406 1.2168,0.316406 0.34348,0 0.63026,-0.05439 0.86133,-0.169922 0.21833,-0.109168 0.39616,-0.241022 0.52734,-0.398437 0.0448,-0.05278 0.0678,-0.09657 0.10547,-0.146485 v 0.740235 c 0,0.393735 -0.11163,0.648233 -0.33399,0.8125 h -0.002 c -0.23363,0.174698 -0.53023,0.265625 -0.90625,0.265625 -0.27753,0 -0.4969,-0.04182 -0.6582,-0.113282 v 0.002 c -0.1698,-0.07619 -0.29787,-0.166752 -0.39063,-0.267578 -0.1008,-0.109763 -0.18083,-0.213016 -0.23828,-0.30664 l -0.0586,-0.0957 -1.13086,0.466796 0.0547,0.123047 c 0.10352,0.237354 0.25965,0.455085 0.46484,0.650391 0.20958,0.199478 0.47699,0.355447 0.79687,0.472656 v 0.002 c 0.32714,0.118958 0.71088,0.175782 1.15039,0.175782 0.47137,0 0.89938,-0.07361 1.28125,-0.222657 0.38791,-0.150712 0.70339,-0.387285 0.9336,-0.705078 0.2343,-0.323439 0.34765,-0.735239 0.34765,-1.21875 V 74.2248 h -1.29296 v 0.69336 c -0.0385,-0.05365 -0.0631,-0.0998 -0.10938,-0.158203 l -0.002,-0.002 c -0.12793,-0.16378 -0.30266,-0.303885 -0.51953,-0.419921 h -0.002 c -0.23199,-0.126108 -0.52458,-0.183594 -0.87304,-0.183594 z m 0,0.263672 c 0.3196,0 0.5687,0.05452 0.74804,0.152343 v 0.002 c 0.19312,0.103144 0.33864,0.219994 0.43946,0.349609 v 0.002 c 0.11395,0.143593 0.2016,0.267703 0.25976,0.371094 l 0.0371,0.06641 h 0.28711 v -0.873047 h 0.76367 v 5.375 c 0,0.442532 -0.10285,0.791964 -0.29883,1.0625 -0.20006,0.276183 -0.46806,0.478699 -0.81445,0.613281 -0.3473,0.135805 -0.74093,0.205079 -1.18555,0.205079 -0.41638,0 -0.77032,-0.05462 -1.06054,-0.160157 -0.2928,-0.107286 -0.52647,-0.246013 -0.70508,-0.416015 -0.14643,-0.139375 -0.23896,-0.294001 -0.32422,-0.451172 l 0.6582,-0.271485 c 0.0587,0.08377 0.11651,0.167924 0.19727,0.25586 0.12238,0.133023 0.28351,0.240622 0.47852,0.328125 0.20817,0.09223 0.4632,0.134765 0.76562,0.134765 0.41908,0 0.77894,-0.104868 1.06445,-0.318359 0.29582,-0.219337 0.44336,-0.576036 0.44336,-1.023437 v -1.191407 h -0.27734 l -0.0371,0.06836 c -0.0572,0.103734 -0.14454,0.22383 -0.25977,0.359375 v 0.002 c -0.10266,0.123203 -0.24817,0.23346 -0.4414,0.330078 -0.18051,0.09025 -0.42818,0.140625 -0.74414,0.140625 -0.40501,0 -0.76322,-0.09255 -1.08399,-0.279297 -0.31611,-0.187488 -0.5668,-0.461151 -0.75586,-0.832031 v -0.002 c -0.18444,-0.369607 -0.27929,-0.831615 -0.27929,-1.388672 0,-0.557991 0.0935,-1.028378 0.27734,-1.416016 0.18745,-0.390521 0.43841,-0.68131 0.75781,-0.884765 h 0.002 v -0.002 c 0.32003,-0.20605 0.67767,-0.308593 1.08789,-0.308593 z m 0.22461,0.626953 c -0.33857,0 -0.63338,0.09006 -0.86914,0.273437 -0.23098,0.177077 -0.4046,0.419474 -0.51954,0.716797 -0.1116,0.295136 -0.16797,0.623213 -0.16796,0.980469 0,0.366545 0.0567,0.693132 0.17187,0.978516 0.11556,0.286383 0.29142,0.5186 0.52344,0.683593 0.23761,0.167109 0.52909,0.248047 0.86133,0.248047 0.32217,0 0.60715,-0.07555 0.83984,-0.232422 0.23321,-0.158059 0.4096,-0.385466 0.52539,-0.669922 0.11817,-0.286625 0.17383,-0.622957 0.17383,-1.007812 0,-0.375553 -0.0552,-0.711655 -0.16992,-1.005859 -0.11503,-0.295067 -0.28791,-0.532811 -0.51758,-0.703125 -0.23304,-0.175436 -0.52267,-0.261719 -0.85156,-0.261719 z m 0,0.265625 c 0.28378,0 0.51014,0.06911 0.69336,0.207031 v 0.002 c 0.18658,0.138367 0.32957,0.32912 0.42968,0.585938 0.10046,0.257677 0.15235,0.560778 0.15235,0.910156 0,0.358784 -0.0526,0.6597 -0.1543,0.90625 l -0.002,0.002 c -0.0993,0.244042 -0.24001,0.423547 -0.42774,0.550781 -0.18356,0.12375 -0.41026,0.1875 -0.6914,0.1875 -0.2898,0 -0.52099,-0.06895 -0.70899,-0.201172 -0.1889,-0.134333 -0.3301,-0.319615 -0.42969,-0.566406 -0.1,-0.247792 -0.15234,-0.539227 -0.15234,-0.878906 0,-0.329552 0.05,-0.623761 0.14844,-0.884766 v -0.002 c 0.10018,-0.258422 0.24599,-0.456238 0.43554,-0.601562 0.18516,-0.144014 0.4142,-0.216797 0.70704,-0.216797 z"
           id="path1896" />
      </g>
      <g
         id="path1829"
         style="fill:#000000;fill-opacity:1">
        <path
           style="color:#000000;-inkscape-font-specification:'Inter, Medium';fill:#000000;fill-opacity:1;stroke:none;-inkscape-stroke:none"
           d="m 118.959,77.510027 v -3.153454 h 1.05232 v 5.38788 h -1.03128 v -0.933057 h -0.0561 q -0.18591,0.431451 -0.59632,0.719086 -0.40689,0.284126 -1.01373,0.284126 -0.51915,0 -0.91903,-0.228003 -0.39637,-0.23151 -0.62437,-0.684008 -0.2245,-0.452498 -0.2245,-1.118967 v -3.427057 h 1.04881 v 3.300778 q 0,0.550715 0.30518,0.876934 0.30517,0.326219 0.79274,0.326219 0.29465,0 0.5858,-0.147324 0.29465,-0.147325 0.48757,-0.445483 0.19643,-0.298157 0.19293,-0.75767 z"
           id="path1900" />
        <path
           style="color:#000000;-inkscape-font-specification:'Inter, Medium';fill:#000000;fill-opacity:1;stroke:none;-inkscape-stroke:none"
           d="m 115.41406,74.224609 v 3.558594 c 0,0.459166 0.0771,0.852905 0.23828,1.177734 v 0.002 c 0.16179,0.321079 0.38867,0.570581 0.67579,0.738281 h 0.002 c 0.28798,0.164203 0.61891,0.246094 0.98437,0.246094 0.42521,0 0.79328,-0.101503 1.08985,-0.308594 0.20176,-0.141404 0.31594,-0.343863 0.44336,-0.53711 v 0.775391 h 1.29687 v -5.652344 h -1.31836 v 3.28711 c 0.002,0.287275 -0.0563,0.511196 -0.16992,0.683593 h -0.002 c -0.11733,0.181326 -0.26072,0.312974 -0.43555,0.400391 -0.17806,0.0901 -0.35101,0.132813 -0.52539,0.132813 -0.29554,0 -0.51783,-0.09335 -0.69727,-0.285157 -0.17808,-0.190357 -0.26953,-0.442449 -0.26953,-0.785156 v -3.433594 z m 0.26367,0.263672 h 0.78516 v 3.169922 c 0,0.39158 0.11102,0.722196 0.33984,0.966797 0.22746,0.243147 0.53608,0.367187 0.89063,0.367187 0.21848,10e-7 0.43439,-0.05382 0.64453,-0.160156 0.21803,-0.109016 0.39916,-0.275969 0.53906,-0.492187 0.14833,-0.225146 0.21733,-0.50467 0.21485,-0.830078 v -3.021485 h 0.78711 v 5.123047 h -0.76563 v -0.931641 h -0.27734 l -0.0332,0.08008 c -0.11416,0.264955 -0.29494,0.482807 -0.55078,0.662109 -0.24595,0.171743 -0.55358,0.259766 -0.9375,0.259766 -0.32673,0 -0.60833,-0.06919 -0.85351,-0.208985 -0.24138,-0.14098 -0.43005,-0.346656 -0.57227,-0.628906 -0.13817,-0.278501 -0.21094,-0.631089 -0.21094,-1.060547 z"
           id="path1902" />
      </g>
      <g
         id="path1831"
         style="fill:#000000;fill-opacity:1">
        <path
           style="color:#000000;-inkscape-font-specification:'Inter, Medium';fill:#000000;fill-opacity:1;stroke:none;-inkscape-stroke:none"
           d="m 125.45531,75.671974 -0.95059,0.168371 q -0.0596,-0.182402 -0.18942,-0.347266 -0.12628,-0.164863 -0.34376,-0.270095 -0.21748,-0.105232 -0.5437,-0.105232 -0.44548,0 -0.74364,0.199941 -0.29815,0.196433 -0.29815,0.508621 0,0.270096 0.19994,0.434959 0.19994,0.164864 0.64542,0.270096 l 0.85589,0.196433 q 0.74364,0.171879 1.10844,0.529668 0.36481,0.357789 0.36481,0.929549 0,0.484068 -0.28062,0.862903 -0.27711,0.375328 -0.77521,0.589299 -0.49459,0.213972 -1.14703,0.213972 -0.905,0 -1.47676,-0.385851 -0.57176,-0.389358 -0.70154,-1.104936 l 1.01373,-0.15434 q 0.0947,0.396374 0.38936,0.599822 0.29465,0.199941 0.76819,0.199941 0.51564,0 0.82432,-0.213972 0.30868,-0.217479 0.30868,-0.529667 0,-0.252557 -0.18942,-0.424436 -0.18591,-0.171879 -0.57176,-0.259573 l -0.91201,-0.199941 q -0.75416,-0.171879 -1.11546,-0.547206 -0.35779,-0.375328 -0.35779,-0.950596 0,-0.477052 0.26659,-0.834841 0.26659,-0.357789 0.73663,-0.55773 0.47003,-0.203448 1.07687,-0.203448 0.87343,0 1.37503,0.378835 0.50161,0.375328 0.66296,1.00672 z"
           id="path1906" />
        <path
           style="color:#000000;-inkscape-font-specification:'Inter, Medium';fill:#000000;fill-opacity:1;stroke:none;-inkscape-stroke:none"
           d="m 123.41797,74.154297 c -0.41934,0 -0.79846,0.07097 -1.13086,0.214844 -0.32996,0.140833 -0.59667,0.341393 -0.78906,0.599609 -0.19456,0.261115 -0.29297,0.571385 -0.29297,0.914062 0,0.410938 0.13271,0.766365 0.39453,1.041016 0.26576,0.276082 0.66299,0.467733 1.18164,0.585938 l 0.91211,0.199218 c 0.2435,0.05534 0.41304,0.137287 0.51172,0.228516 0.1024,0.09292 0.14648,0.190874 0.14648,0.326172 0,0.164523 -0.0705,0.294055 -0.25195,0.421875 -0.17744,0.122999 -0.42259,0.189453 -0.74805,0.189453 -0.29629,0 -0.52431,-0.06156 -0.69336,-0.175781 -0.16883,-0.116574 -0.27882,-0.282422 -0.33593,-0.521485 l -0.0293,-0.11914 -1.26758,0.193359 0.0234,0.134766 c 0.0919,0.506471 0.34932,0.91128 0.75781,1.189453 0.408,0.275338 0.92865,0.410156 1.55078,0.410156 0.44942,0 0.85004,-0.0755 1.19922,-0.226562 v 0.002 c 0.34967,-0.150208 0.62998,-0.361788 0.83008,-0.632813 0.20312,-0.274212 0.30664,-0.593131 0.30664,-0.941406 0,-0.409309 -0.13594,-0.762198 -0.4043,-1.025391 -0.26772,-0.262576 -0.66111,-0.444447 -1.17187,-0.5625 l -0.85547,-0.197265 c -0.28625,-0.06762 -0.48505,-0.15417 -0.5918,-0.242188 -0.10593,-0.08735 -0.15234,-0.186563 -0.15234,-0.333984 0,-0.166011 0.0684,-0.285196 0.24023,-0.398438 0.17346,-0.116319 0.39273,-0.177734 0.66992,-0.177734 0.20326,0 0.36469,0.03294 0.48633,0.0918 0.12964,0.06273 0.22672,0.140831 0.29688,0.232422 0.078,0.09901 0.13339,0.200809 0.16797,0.30664 l 0.0352,0.109375 1.20508,-0.21289 -0.0352,-0.138672 c -0.11391,-0.445763 -0.35472,-0.810814 -0.71093,-1.078125 -0.36387,-0.274813 -0.85367,-0.40625 -1.45508,-0.40625 z m 0,0.263672 c 0.56316,0 0.98999,0.123215 1.29492,0.353515 0.26772,0.200324 0.41609,0.484298 0.52734,0.802735 l -0.66601,0.121093 c -0.0431,-0.09754 -0.0846,-0.194755 -0.1543,-0.283203 -0.0982,-0.128226 -0.23029,-0.231014 -0.39062,-0.308593 -0.16833,-0.08145 -0.36986,-0.117188 -0.60157,-0.117188 -0.31677,0 -0.59232,0.07044 -0.8164,0.220703 -0.22565,0.148669 -0.35742,0.368902 -0.35742,0.619141 0,0.212707 0.0874,0.404641 0.24804,0.537109 0.15984,0.131801 0.3915,0.224185 0.69922,0.296875 l 0.85547,0.197266 c 0.48076,0.111119 0.8282,0.279665 1.04688,0.49414 0.21805,0.21386 0.32421,0.482901 0.32421,0.835938 0,0.297148 -0.0829,0.552303 -0.2539,0.783203 -0.16938,0.229412 -0.40624,0.411788 -0.7207,0.546875 -0.31028,0.134231 -0.67521,0.203125 -1.09571,0.203125 -0.58453,0 -1.048,-0.124151 -1.40234,-0.363281 -0.30986,-0.21101 -0.46691,-0.525716 -0.56641,-0.892578 l 0.74805,-0.115235 c 0.0798,0.226232 0.18377,0.437068 0.37109,0.566407 v 0.002 c 0.22368,0.151783 0.50944,0.222656 0.84375,0.222656 0.36206,0 0.66431,-0.07599 0.89844,-0.238281 h 0.002 c 0.23015,-0.162152 0.36328,-0.386945 0.36328,-0.638672 0,-0.201445 -0.0823,-0.38523 -0.23242,-0.521485 -0.14914,-0.137357 -0.36058,-0.229587 -0.63086,-0.291015 L 122.83989,77.252 h -0.002 c -0.48574,-0.110991 -0.83123,-0.28575 -1.04687,-0.509766 -0.21524,-0.225785 -0.32227,-0.503289 -0.32227,-0.859375 0,-0.293391 0.0793,-0.539922 0.24023,-0.755859 0.16253,-0.218122 0.3881,-0.38993 0.6836,-0.515625 0.2943,-0.127388 0.63561,-0.193359 1.02539,-0.193359 z"
           id="path1908" />
      </g>
      <g
         id="path1833"
         style="fill:#000000;fill-opacity:1">
        <path
           style="color:#000000;-inkscape-font-specification:'Inter, Medium';fill:#000000;fill-opacity:1;stroke:none;-inkscape-stroke:none"
           d="m 93.322745,92.091678 h -2.325628 v -7.18384 h 2.399291 q 1.055828,0 1.813498,0.431452 0.757671,0.427943 1.16106,1.231214 0.406898,0.799764 0.406898,1.918731 0,1.122475 -0.410405,1.929254 -0.406898,0.806779 -1.178599,1.241738 -0.771702,0.431451 -1.866115,0.431451 z M 92.081007,91.14459 h 1.182107 q 0.82081,0 1.364508,-0.308681 0.543699,-0.312188 0.813795,-0.901487 0.270095,-0.592807 0.270095,-1.445187 0,-0.845364 -0.270095,-1.434663 -0.266588,-0.5893 -0.796256,-0.894472 -0.529668,-0.305173 -1.3154,-0.305173 h -1.248754 z"
           id="path1912" />
        <path
           style="color:#000000;-inkscape-font-specification:'Inter, Medium';fill:#000000;fill-opacity:1;stroke:none;-inkscape-stroke:none"
           d="m 90.865234,84.775391 v 7.449218 h 2.457032 c 0.746992,0 1.393922,-0.148585 1.93164,-0.449218 0.536282,-0.302268 0.950319,-0.737534 1.232422,-1.296875 0.284845,-0.559951 0.423828,-1.225796 0.423828,-1.990235 0,-0.761293 -0.139841,-1.421487 -0.421875,-1.976562 v -0.002 c -0.279585,-0.556131 -0.686093,-0.987614 -1.21289,-1.285157 -0.528075,-0.30071 -1.157002,-0.449218 -1.878907,-0.449218 z m 0.263672,0.265625 h 2.267578 c 0.685865,0 1.265897,0.139503 1.748047,0.414062 0.483006,0.272808 0.849175,0.659579 1.107422,1.173828 v 0.002 h 0.002 c 0.259958,0.510952 0.392578,1.12748 0.392578,1.857422 0,0.732193 -0.134123,1.355341 -0.396484,1.871094 -0.260427,0.516363 -0.634301,0.90787 -1.126953,1.185547 -0.490931,0.274075 -1.089291,0.414062 -1.800781,0.414062 h -2.19336 z m 0.820313,0.68164 v 5.554688 h 0.130859 1.183594 c 0.56379,0 1.042366,-0.106273 1.429687,-0.326172 0.385434,-0.221313 0.678755,-0.545551 0.869141,-0.960938 0.189982,-0.416974 0.28125,-0.919727 0.28125,-1.501953 0,-0.577664 -0.0912,-1.073634 -0.28125,-1.488281 -0.187752,-0.41503 -0.474854,-0.738035 -0.851563,-0.955078 -0.377629,-0.217575 -0.839911,-0.322266 -1.380859,-0.322266 z m 0.263672,0.263672 h 1.117187 c 0.506694,0 0.921407,0.09974 1.25,0.289063 0.329514,0.189852 0.572536,0.463281 0.740234,0.833984 0.170081,0.371084 0.259766,0.82942 0.259766,1.378906 0,0.55428 -0.08962,1.017191 -0.259766,1.390625 -0.169741,0.370345 -0.418314,0.64686 -0.757812,0.841797 -0.337609,0.191675 -0.768206,0.291016 -1.298828,0.291016 h -1.050781 z"
           id="path1914" />
      </g>
      <g
         id="path1835"
         style="fill:#000000;fill-opacity:1">
        <path
           style="color:#000000;-inkscape-font-specification:'Inter, Medium';fill:#000000;fill-opacity:1;stroke:none;-inkscape-stroke:none"
           d="m 100.36276,92.200418 q -0.796256,0 -1.371525,-0.34025 -0.571761,-0.343758 -0.883949,-0.964627 -0.308681,-0.624377 -0.308681,-1.462725 0,-0.827826 0.308681,-1.459218 0.312188,-0.631392 0.869918,-0.985673 0.561238,-0.354281 1.311896,-0.354281 0.456,0 0.88395,0.150832 0.42794,0.150833 0.76819,0.473544 0.34025,0.322712 0.53668,0.838349 0.19644,0.512129 0.19644,1.245246 v 0.371819 h -4.282947 v -0.785732 h 3.255177 q 0,-0.413913 -0.16837,-0.733116 -0.16837,-0.322712 -0.47355,-0.508622 -0.30166,-0.18591 -0.70856,-0.18591 -0.441972,0 -0.771699,0.21748 -0.326219,0.213971 -0.505114,0.561237 -0.175387,0.343758 -0.175387,0.747148 v 0.613853 q 0,0.540191 0.189418,0.919026 0.192925,0.378836 0.536683,0.578777 0.343758,0.196433 0.803269,0.196433 0.29816,0 0.5437,-0.08419 0.24554,-0.08769 0.42444,-0.259572 0.17889,-0.171879 0.2736,-0.424436 l 0.99269,0.178894 q -0.11926,0.438467 -0.42794,0.768194 -0.30518,0.32622 -0.7682,0.508622 -0.45951,0.178894 -1.04881,0.178894 z"
           id="path1918" />
        <path
           style="color:#000000;-inkscape-font-specification:'Inter, Medium';fill:#000000;fill-opacity:1;stroke:none;-inkscape-stroke:none"
           d="m 100.28906,86.501953 c -0.521248,0 -0.986139,0.124602 -1.38281,0.375 -0.392414,0.249269 -0.700328,0.596936 -0.917969,1.037109 v 0.002 c -0.215807,0.441422 -0.322265,0.949251 -0.322265,1.517578 0,0.575134 0.106053,1.084147 0.322265,1.521484 0.218285,0.434117 0.533343,0.775763 0.935547,1.017578 v 0.002 c 0.406532,0.240449 0.889773,0.357422 1.439452,0.357422 0.40625,0 0.77155,-0.0613 1.0957,-0.1875 h 0.002 c 0.32394,-0.127613 0.59677,-0.308704 0.81445,-0.541015 0.21997,-0.234971 0.37605,-0.512119 0.46094,-0.824219 l 0.0371,-0.138672 -1.24414,-0.224609 -0.0391,0.103515 c -0.057,0.15197 -0.1359,0.274762 -0.24023,0.375 -0.10557,0.101426 -0.22946,0.177794 -0.37695,0.230469 -0.14773,0.05042 -0.31439,0.07617 -0.5,0.07617 -0.28677,0 -0.529545,-0.05996 -0.736331,-0.177735 -0.206282,-0.11998 -0.366046,-0.292174 -0.484375,-0.523437 -0.0876,-0.175208 -0.113075,-0.413233 -0.134766,-0.654297 h 3.789062 v -0.503906 c 0,-0.50056 -0.0666,-0.931842 -0.20508,-1.292969 -0.13673,-0.358924 -0.32522,-0.656115 -0.56836,-0.886719 -0.23946,-0.227115 -0.51358,-0.395219 -0.8164,-0.501953 -0.2992,-0.105451 -0.60915,-0.158203 -0.92774,-0.158203 z m 0,0.263672 c 0.28942,0 0.56844,0.04887 0.83985,0.144531 0.26776,0.09438 0.50649,0.240194 0.7207,0.44336 0.21053,0.199678 0.37873,0.460471 0.50391,0.789062 v 0.002 c 0.1234,0.321712 0.18945,0.720338 0.18945,1.197266 v 0.240234 h -3.566408 v -0.521484 h 2.802738 v -0.132813 c 0,-0.293879 -0.0603,-0.561249 -0.1836,-0.794922 -0.12236,-0.234526 -0.29881,-0.422638 -0.52148,-0.558593 -0.22372,-0.137879 -0.48593,-0.207032 -0.77734,-0.207032 -0.316351,0 -0.603212,0.08029 -0.845708,0.240235 -0.235651,0.154566 -0.419639,0.360549 -0.548828,0.611328 -0.09032,0.177023 -0.110864,0.377621 -0.136719,0.576172 h -0.505859 v 1.050781 h 0.49414 c 0.02206,0.280592 0.05152,0.55421 0.160156,0.771484 l 0.002,0.002 c 0.138764,0.272484 0.336627,0.486669 0.58789,0.632812 0.251219,0.143553 0.543958,0.214844 0.869148,0.214844 0.21122,0 0.4067,-0.03034 0.58593,-0.0918 h 0.002 c 0.17989,-0.06424 0.33969,-0.161313 0.47265,-0.289063 0.10597,-0.10181 0.17459,-0.237631 0.24024,-0.375 l 0.73242,0.132813 c -0.0777,0.210465 -0.16648,0.411712 -0.32227,0.578125 -0.18905,0.202088 -0.42782,0.361186 -0.7207,0.476562 -0.28852,0.112327 -0.62052,0.169922 -1,0.169922 -0.511996,0 -0.944198,-0.109047 -1.30469,-0.322265 -0.360144,-0.216528 -0.636019,-0.516449 -0.833985,-0.910157 h 0.002 c -0.195362,-0.395164 -0.294921,-0.859682 -0.294921,-1.402343 0,-0.534727 0.09967,-1.00032 0.294921,-1.400391 v -0.002 c 0.19855,-0.400988 0.471454,-0.708798 0.822266,-0.931641 0.351301,-0.221328 0.761312,-0.333984 1.240229,-0.333984 z m 0.008,0.867187 c 0.25111,0 0.46018,0.05602 0.63867,0.166016 0.18364,0.11187 0.32387,0.261715 0.42578,0.457031 0.0813,0.154042 0.10669,0.343353 0.12305,0.539063 h -2.45313 c 0.02393,-0.155962 0.0342,-0.315394 0.105469,-0.455078 0.109337,-0.212242 0.261629,-0.380991 0.460937,-0.511719 0.197139,-0.130028 0.426274,-0.195313 0.699224,-0.195313 z m -1.773443,1.427735 h 0.1875 v 0.521484 h -0.1875 z"
           id="path1920" />
      </g>
      <g
         id="path1837"
         style="fill:#000000;fill-opacity:1">
        <path
           style="color:#000000;-inkscape-font-specification:'Inter, Medium';fill:#000000;fill-opacity:1;stroke:none;-inkscape-stroke:none"
           d="m 103.84244,92.091678 v -5.38788 h 1.00672 v 0.876934 h 0.0666 q 0.16837,-0.445482 0.55072,-0.694531 0.38234,-0.252557 0.91552,-0.252557 0.54019,0 0.90499,0.252557 0.36831,0.252556 0.5437,0.694531 h 0.0561 q 0.19293,-0.431451 0.61386,-0.687516 0.42093,-0.259572 1.00321,-0.259572 0.73312,0 1.19614,0.459513 0.46653,0.459513 0.46653,1.385555 v 3.612966 h -1.04882 v -3.514749 q 0,-0.547207 -0.29815,-0.792748 -0.29816,-0.245542 -0.71207,-0.245542 -0.51213,0 -0.79626,0.315696 -0.28413,0.312189 -0.28413,0.803271 v 3.434072 h -1.0453 v -3.581396 q 0,-0.438467 -0.2736,-0.705055 -0.27361,-0.266588 -0.71207,-0.266588 -0.29816,0 -0.55072,0.157848 -0.24905,0.154341 -0.40339,0.431452 -0.15083,0.277111 -0.15083,0.641915 v 3.321824 z"
           id="path1924" />
        <path
           style="color:#000000;-inkscape-font-specification:'Inter, Medium';fill:#000000;fill-opacity:1;stroke:none;-inkscape-stroke:none"
           d="m 106.38281,86.501953 c -0.37634,0 -0.70979,0.08948 -0.98828,0.273438 -0.19032,0.123966 -0.29414,0.328046 -0.41211,0.519531 v -0.722656 h -1.27148 v 5.652343 h 0.13086 1.18164 v -3.455078 c 0,-0.22497 0.0459,-0.414794 0.13476,-0.578125 0.0933,-0.167435 0.21112,-0.292147 0.35743,-0.382812 0.14853,-0.09283 0.30504,-0.136719 0.48046,-0.136719 0.2655,0 0.46204,0.07544 0.61914,0.228516 0.15644,0.152426 0.23438,0.34458 0.23438,0.609375 v 3.714843 h 1.31055 v -3.566406 c 0,-0.301874 0.0819,-0.532255 0.24804,-0.714844 h 0.002 c 0.16298,-0.181087 0.38303,-0.271484 0.69726,-0.271484 0.24978,0 0.45332,0.07025 0.62891,0.214844 0.16154,0.133036 0.25,0.348675 0.25,0.689453 v 3.648437 h 1.3125 v -3.746093 c 0,-0.638821 -0.16402,-1.141006 -0.50586,-1.478516 -0.33346,-0.330932 -0.77268,-0.498047 -1.28906,-0.498047 -0.40785,0 -0.76845,0.09194 -1.07227,0.279297 -0.25643,0.156277 -0.42836,0.38634 -0.56836,0.636719 -0.12532,-0.252687 -0.27511,-0.485073 -0.50195,-0.640625 -0.26833,-0.185766 -0.59777,-0.275391 -0.97852,-0.275391 z m 0,0.263672 c 0.33951,0 0.61005,0.07754 0.82813,0.228516 l 0.002,0.002 c 0.22393,0.153554 0.38574,0.359642 0.49414,0.632812 l 0.0332,0.08398 h 0.23243 l 0.0352,-0.07813 c 0.11797,-0.263808 0.3024,-0.470679 0.5625,-0.628907 0.25743,-0.158743 0.56507,-0.240234 0.9336,-0.240234 0.4611,0 0.81961,0.140124 1.10351,0.421875 0.27937,0.275165 0.42774,0.695871 0.42774,1.291016 v 3.480468 H 110.25 v -3.382812 c 0,-0.388831 -0.10971,-0.70018 -0.3457,-0.894531 -0.22197,-0.182792 -0.49478,-0.275391 -0.79688,-0.275391 -0.3686,0 -0.67867,0.119535 -0.89453,0.359375 -0.21266,0.233663 -0.31836,0.539677 -0.31836,0.892578 v 3.300781 h -0.78125 v -3.449218 c 0,-0.319828 -0.10413,-0.595804 -0.3125,-0.798829 -0.2077,-0.202374 -0.48557,-0.304687 -0.80469,-0.304687 -0.22211,0 -0.43288,0.0601 -0.62109,0.177734 -0.18577,0.115123 -0.33669,0.278424 -0.44922,0.480469 -0.11221,0.20615 -0.16601,0.443644 -0.16601,0.705078 v 3.189453 h -0.78516 v -5.123047 h 0.74219 v 0.876954 h 0.29101 l 0.0312,-0.08594 c 0.10342,-0.273636 0.26789,-0.479668 0.5,-0.630859 0.2313,-0.152784 0.50919,-0.230469 0.84375,-0.230469 z"
           id="path1926" />
      </g>
      <g
         id="path1839"
         style="fill:#000000;fill-opacity:1">
        <path
           style="color:#000000;-inkscape-font-specification:'Inter, Medium';fill:#000000;fill-opacity:1;stroke:none;-inkscape-stroke:none"
           d="m 114.83918,92.200418 q -0.75767,0 -1.32242,-0.347266 -0.56474,-0.347265 -0.87693,-0.971642 -0.31219,-0.624377 -0.31219,-1.459217 0,-0.838349 0.31219,-1.466233 0.31219,-0.627885 0.87693,-0.975151 0.56475,-0.347265 1.32242,-0.347265 0.75767,0 1.32241,0.347265 0.56475,0.347266 0.87694,0.975151 0.31219,0.627884 0.31219,1.466233 0,0.83484 -0.31219,1.459217 -0.31219,0.624377 -0.87694,0.971642 -0.56474,0.347266 -1.32241,0.347266 z m 0.004,-0.880441 q 0.49108,0 0.81379,-0.259573 0.32271,-0.259572 0.47705,-0.691023 0.15785,-0.431452 0.15785,-0.950596 0,-0.515637 -0.15785,-0.947088 -0.15434,-0.43496 -0.47705,-0.69804 -0.32271,-0.26308 -0.81379,-0.26308 -0.49459,0 -0.82081,0.26308 -0.32272,0.26308 -0.48056,0.69804 -0.15434,0.431451 -0.15434,0.947088 0,0.519144 0.15434,0.950596 0.15784,0.431451 0.48056,0.691023 0.32622,0.259573 0.82081,0.259573 z"
           id="path1930" />
        <path
           style="color:#000000;-inkscape-font-specification:'Inter, Medium';fill:#000000;fill-opacity:1;stroke:none;-inkscape-stroke:none"
           d="m 114.83984,86.501953 c -0.52532,0 -0.99359,0.121851 -1.39257,0.367188 -0.39754,0.244447 -0.70783,0.588985 -0.92579,1.027343 -0.21857,0.439607 -0.32617,0.950071 -0.32617,1.525391 0,0.57305 0.1075,1.082186 0.32617,1.519531 0.21801,0.436016 0.52842,0.781048 0.92579,1.025391 0.39898,0.245337 0.86725,0.365234 1.39257,0.365234 0.52533,0 0.99165,-0.119896 1.39063,-0.365234 0.39737,-0.244343 0.70777,-0.589375 0.92578,-1.025391 0.21867,-0.437345 0.32617,-0.946481 0.32617,-1.519531 0,-0.57532 -0.10759,-1.085784 -0.32617,-1.525391 -0.21796,-0.438359 -0.52824,-0.782896 -0.92578,-1.027343 -0.39898,-0.245337 -0.8653,-0.367188 -1.39063,-0.367188 z m 0,0.263672 c 0.48491,0 0.89795,0.110443 1.25196,0.328125 0.35546,0.218573 0.62983,0.523055 0.82812,0.921875 0.19768,0.397571 0.29883,0.863772 0.29883,1.40625 0,0.540069 -0.10125,1.005234 -0.29883,1.400391 -0.19824,0.396485 -0.47249,0.699292 -0.82812,0.917968 -0.35401,0.217683 -0.76705,0.328125 -1.25196,0.328125 -0.4849,0 -0.89989,-0.110441 -1.2539,-0.328125 -0.35563,-0.218676 -0.62988,-0.521482 -0.82813,-0.917968 -0.19758,-0.395157 -0.29883,-0.860322 -0.29883,-1.400391 0,-0.542478 0.10116,-1.008679 0.29883,-1.40625 0.1983,-0.39882 0.47267,-0.703302 0.82813,-0.921875 0.35401,-0.217683 0.769,-0.328125 1.2539,-0.328125 z m 0.004,0.613281 c -0.35318,0 -0.66139,0.09512 -0.9043,0.291016 v 0.002 c -0.23463,0.191273 -0.40931,0.444796 -0.52148,0.753906 v 0.002 c -0.10852,0.303371 -0.16211,0.633278 -0.16211,0.990235 0,0.359205 0.0536,0.692615 0.16211,0.996093 0.11228,0.306915 0.28665,0.561119 0.52148,0.75 0.24297,0.193331 0.55143,0.289063 0.9043,0.289063 0.3507,0 0.65581,-0.09547 0.89648,-0.289063 0.23501,-0.189028 0.40767,-0.442755 0.51758,-0.75 0.11112,-0.303712 0.16602,-0.63659 0.16602,-0.996093 0,-0.356573 -0.0554,-0.687105 -0.16602,-0.990235 v -0.002 c -0.10983,-0.308702 -0.28318,-0.562821 -0.51758,-0.753906 -0.24061,-0.196152 -0.54547,-0.292969 -0.89648,-0.292969 z m 0,0.263672 c 0.30376,0 0.5408,0.07975 0.73047,0.234375 0.19547,0.159352 0.33956,0.368163 0.43555,0.638672 v 0.002 c 0.0994,0.271664 0.15039,0.570132 0.15039,0.900391 0,0.332687 -0.051,0.634694 -0.15039,0.90625 -0.0959,0.268023 -0.24028,0.475745 -0.43555,0.632812 -0.1896,0.152508 -0.42639,0.230469 -0.73047,0.230469 -0.30658,0 -0.54629,-0.0777 -0.73828,-0.230469 -0.19546,-0.157214 -0.34128,-0.36446 -0.43945,-0.632812 -0.0972,-0.271791 -0.14649,-0.573265 -0.14649,-0.90625 0,-0.329862 0.0496,-0.628949 0.14649,-0.900391 v -0.002 c 0.0983,-0.270024 0.2442,-0.479503 0.43945,-0.638672 0.19205,-0.154878 0.43201,-0.234375 0.73828,-0.234375 z"
           id="path1932" />
      </g>
      <g
         id="path1841"
         style="fill:#000000;fill-opacity:1">
        <path
           style="color:#000000;-inkscape-font-specification:'Inter, Medium';fill:#000000;fill-opacity:1;stroke:none;-inkscape-stroke:none"
           d="m 82.10501,97.255063 v 7.183837 h -0.996197 l -3.651551,-5.268614 h -0.06665 v 5.268614 h -1.08389 v -7.183837 h 1.003212 l 3.655059,5.275637 h 0.06665 v -5.275637 z"
           id="path1936" />
        <path
           style="color:#000000;-inkscape-font-specification:'Inter, Medium';fill:#000000;fill-opacity:1;stroke:none;-inkscape-stroke:none"
           d="m 76.173828,97.123047 v 7.447263 h 1.349609 v -5.072263 l 3.515625,5.072263 h 1.197266 v -7.447263 h -0.130859 -1.207032 v 5.078123 l -3.519531,-5.078123 z m 0.265625,0.263672 h 0.800781 l 3.65625,5.275391 h 0.267578 v -5.275391 h 0.808594 v 6.919921 h -0.794922 l -3.65039,-5.269531 h -0.269532 v 5.269531 h -0.818359 z"
           id="path1938" />
      </g>
      <g
         id="path1843"
         style="fill:#000000;fill-opacity:1">
        <path
           style="color:#000000;-inkscape-font-specification:'Inter, Medium';fill:#000000;fill-opacity:1;stroke:none;-inkscape-stroke:none"
           d="m 83.683484,104.4389 v -7.183837 h 4.50393 v 0.933058 h -3.420041 v 2.188829 h 3.185023 v 0.92955 h -3.185023 v 2.19935 h 3.462134 v 0.93305 z"
           id="path1942" />
        <path
           style="color:#000000;-inkscape-font-specification:'Inter, Medium';fill:#000000;fill-opacity:1;stroke:none;-inkscape-stroke:none"
           d="m 83.550781,97.123047 v 7.447263 h 0.132813 4.677734 v -1.19726 h -3.460937 v -1.9336 h 3.183593 v -1.19531 h -3.183593 v -1.923828 h 3.419921 v -1.197265 z m 0.265625,0.263672 h 4.238281 v 0.669922 h -3.419921 v 2.453129 h 3.185546 v 0.66406 h -3.185546 v 2.46484 h 3.46289 v 0.66797 h -4.28125 z"
           id="path1944" />
      </g>
      <g
         id="path1845"
         style="fill:#000000;fill-opacity:1">
        <path
           style="color:#000000;-inkscape-font-specification:'Inter, Medium';fill:#000000;fill-opacity:1;stroke:none;-inkscape-stroke:none"
           d="m 90.393785,97.255063 1.71879,2.809697 h 0.05612 l 1.718789,-2.809697 h 1.255769 l -2.237934,3.591917 2.251965,3.59192 H 93.8945 l -1.725805,-2.77111 h -0.05612 l -1.725805,2.77111 h -1.262785 l 2.290551,-3.59192 -2.27652,-3.591917 z"
           id="path1948" />
        <path
           style="color:#000000;-inkscape-font-specification:'Inter, Medium';fill:#000000;fill-opacity:1;stroke:none;-inkscape-stroke:none"
           d="m 88.898437,97.123047 2.359375,3.724613 -2.375,3.72265 h 1.578125 l 1.679688,-2.69726 1.679687,2.69726 h 1.576172 l -2.335937,-3.72265 2.320312,-3.724613 H 93.8125 l -1.671875,2.732422 -1.671875,-2.732422 h -0.07422 z m 0.480469,0.263672 h 0.941406 l 1.71875,2.810551 h 0.203125 l 1.71875,-2.810551 h 0.945313 l -2.15625,3.460941 2.167969,3.45898 H 93.96875 l -1.726563,-2.77148 h -0.203125 l -1.726562,2.77148 h -0.947266 l 2.207032,-3.45898 z"
           id="path1950" />
      </g>
      <g
         id="path1847"
         style="fill:#000000;fill-opacity:1">
        <path
           style="color:#000000;-inkscape-font-specification:'Inter, Medium';fill:#000000;fill-opacity:1;stroke:none;-inkscape-stroke:none"
           d="m 95.865848,98.188121 v -0.933058 h 5.559762 v 0.933058 h -2.241445 v 6.250779 h -1.080382 v -6.250779 z"
           id="path1954" />
        <path
           style="color:#000000;-inkscape-font-specification:'Inter, Medium';fill:#000000;fill-opacity:1;stroke:none;-inkscape-stroke:none"
           d="m 95.734375,97.123047 v 1.197265 h 0.130859 2.105469 v 6.249998 h 1.345703 v -6.249998 h 2.242184 v -1.197265 z m 0.263672,0.263672 h 5.294923 v 0.669922 h -2.240236 v 6.249999 h -0.816406 v -6.249999 h -2.238281 z"
           id="path1956" />
      </g>
      <g
         id="path1849"
         style="fill:#000000;fill-opacity:1">
        <path
           style="color:#000000;-inkscape-font-specification:'Inter, Medium';fill:#000000;fill-opacity:1;stroke:none;-inkscape-stroke:none"
           d="m 102.9199,104.50555 q -0.28763,0 -0.49459,-0.20345 -0.20695,-0.20695 -0.20695,-0.4981 0,-0.28763 0.20695,-0.49108 0.20696,-0.20696 0.49459,-0.20696 0.28764,0 0.4946,0.20696 0.20695,0.20345 0.20695,0.49108 0,0.19293 -0.0982,0.35428 -0.0947,0.15785 -0.25256,0.25256 -0.15785,0.0947 -0.35078,0.0947 z"
           id="path1960" />
        <path
           style="color:#000000;-inkscape-font-specification:'Inter, Medium';fill:#000000;fill-opacity:1;stroke:none;-inkscape-stroke:none"
           d="m 102.91992,102.97461 c -0.22348,0 -0.42825,0.0845 -0.58789,0.24414 -0.16019,0.15748 -0.24609,0.36246 -0.24609,0.58594 0,0.22544 0.0862,0.43189 0.24609,0.59179 0.15982,0.15712 0.36495,0.24219 0.58789,0.24219 h 0.0547 l 0.0215,-0.0215 c 0.12038,-0.0114 0.23911,-0.0321 0.3418,-0.0937 0.12304,-0.0738 0.22502,-0.17385 0.29883,-0.29688 0.0776,-0.12757 0.11719,-0.27081 0.11719,-0.42187 0,-0.22348 -0.0859,-0.42846 -0.2461,-0.58594 -0.15964,-0.15964 -0.3644,-0.24414 -0.58789,-0.24414 z m 0,0.26367 c 0.16003,0 0.28409,0.0517 0.40039,0.16797 h 0.002 v 0.002 c 0.11574,0.11379 0.16601,0.23646 0.16601,0.39649 0,0.10617 -0.0248,0.19759 -0.0781,0.28515 -0.0525,0.0874 -0.11959,0.15457 -0.20703,0.20704 -0.0849,0.0509 -0.17623,0.0762 -0.28321,0.0762 -0.15962,0 -0.28484,-0.0513 -0.40039,-0.16407 l -0.002,-0.002 c -0.11462,-0.11547 -0.16602,-0.24054 -0.16602,-0.40234 0,-0.16003 0.0503,-0.2827 0.16602,-0.39649 v -0.002 h 0.002 c 0.11631,-0.11631 0.24037,-0.16797 0.40039,-0.16797 z"
           id="path1962" />
      </g>
      <g
         id="path1851"
         style="fill:#000000;fill-opacity:1">
        <path
           style="color:#000000;-inkscape-font-specification:'Inter, Medium';fill:#000000;fill-opacity:1;stroke:none;-inkscape-stroke:none"
           d="m 105.02455,99.051023 h 1.04881 v 5.738657 q 0,0.54019 -0.19643,0.91201 -0.19293,0.37182 -0.57527,0.56474 -0.37884,0.19293 -0.93657,0.19293 -0.0561,0 -0.10523,0 -0.0526,0 -0.10874,-0.004 v -0.90149 q 0.0491,0 0.0877,0 0.0351,0 0.0807,0 0.37182,0 0.53669,-0.19994 0.16837,-0.19643 0.16837,-0.57176 z m 0.51914,-0.831333 q -0.2736,0 -0.47003,-0.182402 -0.19293,-0.18591 -0.19293,-0.441974 0,-0.259573 0.19293,-0.441975 0.19643,-0.18591 0.47003,-0.18591 0.2736,0 0.46653,0.18591 0.19643,0.182402 0.19643,0.441975 0,0.256064 -0.19643,0.441974 -0.19293,0.182402 -0.46653,0.182402 z"
           id="path1966" />
        <path
           style="color:#000000;-inkscape-font-specification:'Inter, Medium';fill:#000000;fill-opacity:1;stroke:none;-inkscape-stroke:none"
           d="m 105.54297,96.835937 c -0.21236,0 -0.40732,0.07568 -0.56055,0.220704 -0.15138,0.143123 -0.23437,0.333238 -0.23437,0.539062 0,0.203934 0.0839,0.392112 0.23437,0.537109 l 0.002,0.002 c 0.15339,0.142441 0.34679,0.216797 0.55859,0.216796 0.2118,10e-7 0.40729,-0.0757 0.55859,-0.21875 0.15298,-0.144783 0.23828,-0.332572 0.23828,-0.537109 0,-0.205517 -0.0857,-0.394434 -0.23828,-0.537109 -0.15112,-0.145621 -0.34623,-0.222656 -0.55859,-0.222657 z m 0,0.263672 c 0.15243,0 0.26888,0.04618 0.375,0.148438 l 0.002,0.002 c 0.10803,0.100309 0.1543,0.206025 0.1543,0.345703 0,0.136882 -0.0454,0.242607 -0.1543,0.345703 -0.10593,0.100154 -0.22395,0.146485 -0.37695,0.146485 -0.15205,0 -0.26899,-0.04702 -0.37695,-0.146485 l -0.002,-0.002 c -0.10521,-0.102229 -0.15039,-0.207203 -0.15039,-0.34375 0,-0.140273 0.0445,-0.245624 0.15039,-0.345703 0.10868,-0.102862 0.22647,-0.150391 0.37891,-0.150391 z m -0.65039,1.81836 v 0.132812 5.730469 c 0,0.23044 -0.0516,0.38699 -0.13672,0.48633 v 0.002 h -0.002 c -0.0789,0.0956 -0.20943,0.15235 -0.4336,0.15235 h -0.082 -0.21875 v 1.15625 l 0.12305,0.01 c 0.0404,0.003 0.0788,0.004 0.11719,0.004 h 0.10546 c 0.38708,0 0.72014,-0.0665 0.9961,-0.20703 0.27742,-0.13998 0.49204,-0.35176 0.63281,-0.62305 0.14275,-0.27097 0.21094,-0.59722 0.21094,-0.97266 v -5.871091 z m 0.26367,0.265625 h 0.78516 v 5.605466 c 0,0.34409 -0.0631,0.62708 -0.18164,0.85157 -0.11648,0.22447 -0.28522,0.39056 -0.51758,0.50781 -0.22917,0.1167 -0.52039,0.17773 -0.87696,0.17773 h -0.082 v -0.64062 h 0.0371 c 0.27059,0 0.49565,-0.0765 0.63672,-0.2461 v -0.002 c 0.13854,-0.16246 0.19922,-0.38698 0.19922,-0.65625 z"
           id="path1968" />
      </g>
      <g
         id="path1853"
         style="fill:#000000;fill-opacity:1">
        <path
           style="color:#000000;-inkscape-font-specification:'Inter, Medium';fill:#000000;fill-opacity:1;stroke:none;-inkscape-stroke:none"
           d="m 111.52086,100.36642 -0.95059,0.16837 q -0.0596,-0.1824 -0.18942,-0.34726 -0.12628,-0.16486 -0.34376,-0.270096 -0.21748,-0.105232 -0.5437,-0.105232 -0.44548,0 -0.74364,0.199938 -0.29815,0.19644 -0.29815,0.50862 0,0.2701 0.19994,0.43496 0.19994,0.16487 0.64542,0.2701 l 0.85589,0.19643 q 0.74364,0.17188 1.10844,0.52967 0.36481,0.35779 0.36481,0.92955 0,0.48407 -0.28062,0.8629 -0.27711,0.37533 -0.77521,0.5893 -0.49459,0.21397 -1.14703,0.21397 -0.905,0 -1.47676,-0.38585 -0.57176,-0.38936 -0.70155,-1.10493 l 1.01374,-0.15434 q 0.0947,0.39637 0.38936,0.59982 0.29465,0.19994 0.76819,0.19994 0.51564,0 0.82432,-0.21397 0.30868,-0.21748 0.30868,-0.52967 0,-0.25256 -0.18942,-0.42444 -0.18591,-0.17188 -0.57176,-0.25957 l -0.91201,-0.19994 q -0.75416,-0.17188 -1.11546,-0.54721 -0.35779,-0.37532 -0.35779,-0.95059 0,-0.47705 0.26659,-0.834843 0.26659,-0.357789 0.73662,-0.55773 0.47004,-0.203448 1.07688,-0.203448 0.87343,0 1.37503,0.378835 0.50161,0.375328 0.66296,1.006716 z"
           id="path1972" />
        <path
           style="color:#000000;-inkscape-font-specification:'Inter, Medium';fill:#000000;fill-opacity:1;stroke:none;-inkscape-stroke:none"
           d="m 109.48242,98.847656 c -0.41934,0 -0.7965,0.07097 -1.1289,0.214844 -0.33122,0.140894 -0.59809,0.340681 -0.79102,0.599609 -0.19456,0.261117 -0.29297,0.571391 -0.29297,0.914061 0,0.41094 0.13271,0.76832 0.39453,1.04297 h 0.002 c 0.26576,0.27608 0.66103,0.46578 1.17968,0.58399 h 0.002 l 0.91015,0.20117 c 0.2435,0.0553 0.41304,0.13533 0.51172,0.22656 l 0.002,0.002 c 0.1024,0.0929 0.14454,0.19087 0.14454,0.32617 0,0.16363 -0.0708,0.29279 -0.25,0.41993 -0.17745,0.12299 -0.42454,0.1914 -0.75,0.1914 -0.29708,0 -0.52418,-0.0629 -0.69336,-0.17773 -0.16884,-0.11658 -0.27883,-0.28243 -0.33594,-0.52149 l -0.0273,-0.11718 -1.26954,0.19336 0.0254,0.13281 c 0.0919,0.50646 0.34738,0.91323 0.75586,1.1914 h 0.002 c 0.408,0.27534 0.92864,0.40821 1.55078,0.40821 0.44942,0 0.85003,-0.0735 1.19922,-0.22461 0.34966,-0.15021 0.62802,-0.36179 0.82812,-0.63281 0.20312,-0.27421 0.30664,-0.59313 0.30664,-0.94141 0,-0.40931 -0.13594,-0.76025 -0.40429,-1.02344 -0.26773,-0.26257 -0.65917,-0.4464 -1.16993,-0.56445 h -0.002 l -0.85351,-0.19531 h -0.002 c -0.28495,-0.0675 -0.4834,-0.15637 -0.58984,-0.24414 -0.10593,-0.0874 -0.15235,-0.18461 -0.15235,-0.33204 0,-0.166 0.0664,-0.28519 0.23829,-0.39843 l 0.002,-0.002 c 0.17346,-0.11631 0.39273,-0.175778 0.66992,-0.175778 0.20326,0 0.36273,0.03294 0.48438,0.0918 0.12964,0.0627 0.22671,0.13888 0.29687,0.23047 v 0.002 h 0.002 c 0.078,0.099 0.13339,0.20081 0.16797,0.30664 l 0.0352,0.10938 1.20312,-0.21289 -0.0352,-0.13868 c -0.11415,-0.446678 -0.35349,-0.812601 -0.71094,-1.080062 -0.36387,-0.274812 -0.85367,-0.40625 -1.45508,-0.40625 z m 0,0.265625 c 0.56316,0 0.98999,0.121262 1.29492,0.351563 h 0.002 c 0.26847,0.200887 0.41815,0.484991 0.52929,0.804686 l -0.66992,0.11914 c -0.0427,-0.0963 -0.0837,-0.19379 -0.15234,-0.28125 l -0.002,-0.002 c -0.0981,-0.127244 -0.23118,-0.229486 -0.39063,-0.306642 -0.16833,-0.08145 -0.3679,-0.119141 -0.59961,-0.119141 -0.31607,0 -0.59259,0.07307 -0.81641,0.222657 -0.22565,0.148676 -0.35937,0.368906 -0.35937,0.619136 0,0.21271 0.0874,0.40465 0.24805,0.53711 0.15984,0.13181 0.39149,0.22419 0.69922,0.29688 h 0.002 l 0.85547,0.19531 c 0.48076,0.11112 0.82624,0.28162 1.04492,0.4961 0.21805,0.21385 0.32617,0.48094 0.32617,0.83398 0,0.29715 -0.0848,0.55426 -0.25586,0.78516 -0.16938,0.22941 -0.40624,0.41178 -0.7207,0.54687 -0.31027,0.13423 -0.67325,0.20313 -1.09375,0.20313 -0.58377,0 -1.04818,-0.12477 -1.40235,-0.36329 -0.31034,-0.21134 -0.46706,-0.52682 -0.5664,-0.89453 l 0.74805,-0.11328 c 0.0798,0.22615 0.18186,0.4371 0.36914,0.56641 h 0.002 c 0.22368,0.15178 0.50748,0.22265 0.8418,0.22265 0.36205,0 0.66625,-0.074 0.90039,-0.23632 v -0.002 c 0.23015,-0.16215 0.36523,-0.38499 0.36523,-0.63672 0,-0.20081 -0.0832,-0.38535 -0.23242,-0.52148 -0.1492,-0.13794 -0.36184,-0.22943 -0.63281,-0.29102 l -0.91016,-0.20117 h -0.002 c -0.48574,-0.11099 -0.83319,-0.28574 -1.04883,-0.50976 -0.21524,-0.22578 -0.32031,-0.50329 -0.32031,-0.85938 0,-0.29339 0.0793,-0.53992 0.24023,-0.755858 0.16252,-0.218122 0.38615,-0.387977 0.68164,-0.513671 h 0.002 c 0.29432,-0.127389 0.63367,-0.19336 1.02344,-0.19336 z"
           id="path1974" />
      </g>
      <g
         id="path1855"
         style="fill:#000000;fill-opacity:1">
        <path
           style="color:#000000;-inkscape-font-specification:'Inter, Medium';fill:#000000;fill-opacity:1;stroke:none;-inkscape-stroke:none"
           d="m 116.96136,104.55817 q -0.51213,0 -0.92604,-0.18942 -0.41391,-0.19293 -0.65595,-0.55773 -0.23852,-0.36481 -0.23852,-0.89447 0,-0.45601 0.17538,-0.75066 0.17539,-0.29465 0.47355,-0.46653 0.29815,-0.17188 0.66647,-0.25957 0.36831,-0.0877 0.75065,-0.13329 0.48407,-0.0561 0.78573,-0.0912 0.30167,-0.0386 0.43847,-0.12278 0.1368,-0.0842 0.1368,-0.2736 v -0.0246 q 0,-0.45952 -0.25957,-0.71207 -0.25606,-0.25256 -0.76469,-0.25256 -0.52966,0 -0.83484,0.23502 -0.30166,0.23151 -0.41742,0.51564 l -0.98567,-0.2245 q 0.17539,-0.491082 0.51213,-0.792747 0.34025,-0.305173 0.78222,-0.441975 0.44198,-0.140309 0.92955,-0.140309 0.32272,0 0.68401,0.07717 0.36481,0.07366 0.6805,0.273603 0.31921,0.199941 0.52265,0.571761 0.20345,0.368307 0.20345,0.957607 v 3.57789 h -1.02426 v -0.73662 h -0.0421 q -0.10172,0.20345 -0.30517,0.39988 -0.20345,0.19643 -0.52265,0.32622 -0.31921,0.12979 -0.76469,0.12979 z m 0.228,-0.84186 q 0.43496,0 0.74364,-0.17188 0.31219,-0.17188 0.47355,-0.44899 0.16486,-0.28062 0.16486,-0.59982 v -0.69453 q -0.0561,0.0561 -0.21748,0.10523 -0.15785,0.0456 -0.3613,0.0807 -0.20344,0.0316 -0.39637,0.0596 -0.19292,0.0246 -0.32271,0.0421 -0.30517,0.0386 -0.55773,0.12979 -0.24905,0.0912 -0.39988,0.26308 -0.14733,0.16837 -0.14733,0.44899 0,0.38936 0.28764,0.5893 0.28763,0.19643 0.73311,0.19643 z"
           id="path1978" />
        <path
           style="color:#000000;-inkscape-font-specification:'Inter, Medium';fill:#000000;fill-opacity:1;stroke:none;-inkscape-stroke:none"
           d="m 117.5293,98.847656 c -0.33774,0 -0.66073,0.0487 -0.96875,0.146485 -0.31203,0.09658 -0.58937,0.254805 -0.83008,0.470703 -0.24257,0.217298 -0.42577,0.501141 -0.54883,0.845706 l -0.0508,0.14062 1.24023,0.28321 0.043,-0.10352 c 0.0668,-0.16386 0.18815,-0.31754 0.375,-0.46094 0.17414,-0.1341 0.42037,-0.207029 0.75391,-0.207029 0.31719,0 0.53235,0.07527 0.67187,0.212889 l 0.002,0.002 c 0.1443,0.14041 0.21875,0.33575 0.21875,0.61719 v 0.0234 c 0,0.0944 -0.0207,0.12918 -0.0742,0.16211 -0.0619,0.0381 -0.19317,0.079 -0.38477,0.10351 -0.20107,0.0234 -0.46245,0.0544 -0.78515,0.0918 -0.25984,0.031 -0.51508,0.0751 -0.76563,0.13477 -0.25667,0.0611 -0.49042,0.15194 -0.70117,0.27343 -0.21739,0.12532 -0.39349,0.29865 -0.52148,0.51368 -0.13227,0.2222 -0.19532,0.49739 -0.19532,0.81836 0,0.37296 0.0867,0.69904 0.26172,0.96679 v 0.002 c 0.17463,0.26319 0.41306,0.46557 0.70899,0.60351 h 0.002 c 0.29471,0.13487 0.62274,0.20313 0.98047,0.20313 h 0.16211 l -0.006,-0.0293 c 0.23856,-0.0141 0.47018,-0.0349 0.6582,-0.11133 0.22529,-0.0916 0.41442,-0.20866 0.56445,-0.35351 0.0536,-0.0517 0.0787,-0.10877 0.12305,-0.16211 v 0.53515 h 1.28906 v -3.70898 c 0,-0.40809 -0.0687,-0.74981 -0.21875,-1.021486 -0.14457,-0.264227 -0.33555,-0.473009 -0.56836,-0.619141 -0.22319,-0.141363 -0.46461,-0.240643 -0.72265,-0.292969 h -0.002 c -0.24799,-0.05284 -0.48585,-0.08008 -0.71093,-0.08008 z m 0,0.265625 c 0.2046,0 0.42326,0.02445 0.65625,0.07422 h 0.002 c 0.2277,0.04598 0.43952,0.13096 0.63672,0.255859 0.19226,0.120423 0.35013,0.292358 0.47656,0.523438 0.1212,0.219392 0.1875,0.516892 0.1875,0.894532 v 3.44531 h -0.75976 v -0.73633 h -0.25586 l -0.0371,0.0723 c -0.0597,0.11931 -0.15216,0.24248 -0.2793,0.36523 -0.12124,0.11706 -0.28016,0.21738 -0.48047,0.29883 -0.19291,0.0784 -0.4307,0.11914 -0.71484,0.11914 -0.32441,0 -0.61239,-0.0606 -0.86914,-0.17773 h -0.002 c -0.25524,-0.11927 -0.45179,-0.28699 -0.59961,-0.50977 -0.14296,-0.21866 -0.21679,-0.48902 -0.21679,-0.82226 0,-0.28705 0.0547,-0.51099 0.15625,-0.68164 0.10585,-0.17784 0.24562,-0.31607 0.42578,-0.41993 0.18678,-0.10767 0.39643,-0.19028 0.63086,-0.24609 0.24053,-0.0573 0.48638,-0.10106 0.73633,-0.13086 0.32272,-0.0374 0.58401,-0.0664 0.78515,-0.0898 v -0.002 h 0.002 c 0.21062,-0.0269 0.36975,-0.0665 0.49023,-0.14062 0.12891,-0.0793 0.19922,-0.2286 0.19922,-0.38672 v -0.0234 c 0,-0.33125 -0.097,-0.61031 -0.29883,-0.806638 -0.20188,-0.199125 -0.49644,-0.291015 -0.85742,-0.291015 -0.37267,0 -0.6813,0.08246 -0.91406,0.261718 -0.17871,0.137145 -0.29093,0.303165 -0.38282,0.474605 l -0.73046,-0.16601 c 0.10496,-0.23491 0.22136,-0.453839 0.39062,-0.60547 0.21295,-0.190998 0.45516,-0.328242 0.73242,-0.414062 h 0.002 c 0.28128,-0.08929 0.57631,-0.134766 0.88867,-0.134766 z m 1.17383,2.369139 -0.22461,0.22461 c -0.006,0.006 -0.0658,0.0424 -0.16407,0.0723 -0.099,0.0285 -0.21263,0.0555 -0.34375,0.0781 l 0.002,-0.002 c -0.13522,0.021 -0.26637,0.0419 -0.39453,0.0606 -0.12782,0.0163 -0.23579,0.0293 -0.32227,0.041 -0.21104,0.0268 -0.40773,0.0724 -0.58594,0.13672 -0.18313,0.0671 -0.33641,0.16778 -0.45312,0.30078 -0.12221,0.13966 -0.17969,0.32493 -0.17969,0.53516 0,0.29215 0.11894,0.54295 0.34375,0.69922 0.21802,0.14889 0.49216,0.21875 0.80859,0.21875 0.3067,0 0.57811,-0.0607 0.80664,-0.1875 0.22601,-0.12443 0.40514,-0.29153 0.52539,-0.49805 0.12101,-0.20597 0.18165,-0.43044 0.18165,-0.66602 z m -0.26368,0.52735 v 0.48632 c 0,0.19003 -0.0477,0.36502 -0.14648,0.53321 -0.0949,0.16295 -0.23358,0.29369 -0.42383,0.39843 v 0.002 c -0.18271,0.10174 -0.40714,0.15429 -0.67969,0.15429 -0.27754,0 -0.49271,-0.0608 -0.6582,-0.17382 -0.15762,-0.11018 -0.23047,-0.25422 -0.23047,-0.48047 0,-0.16393 0.041,-0.27649 0.11524,-0.36133 0.0844,-0.0962 0.19677,-0.17203 0.3457,-0.22656 v 0.002 c 0.15797,-0.057 0.33421,-0.0984 0.5293,-0.12305 0.0861,-0.0116 0.19386,-0.0266 0.32226,-0.043 h 0.002 c 0.12908,-0.0187 0.2624,-0.0394 0.39844,-0.0605 h 0.002 c 0.13944,-0.0241 0.2639,-0.0519 0.375,-0.084 h 0.002 c 0.0201,-0.006 0.0285,-0.0172 0.0469,-0.0234 z"
           id="path1980" />
      </g>
      <g
         id="path1857"
         style="fill:#000000;fill-opacity:1">
        <path
           style="color:#000000;-inkscape-font-specification:'Inter, Medium';fill:#000000;fill-opacity:1;stroke:none;-inkscape-stroke:none"
           d="m 121.01629,106.45936 v -7.408337 h 1.02426 v 0.873426 h 0.0877 q 0.0912,-0.168371 0.26308,-0.389358 0.17188,-0.220988 0.47705,-0.385851 0.30518,-0.168371 0.80678,-0.168371 0.65244,0 1.16457,0.329727 0.51213,0.329727 0.80327,0.950594 0.29465,0.62087 0.29465,1.4943 0,0.87342 -0.29114,1.4978 -0.29114,0.62087 -0.79976,0.95761 -0.50863,0.33324 -1.16106,0.33324 -0.49109,0 -0.80328,-0.16487 -0.30868,-0.16486 -0.48406,-0.38585 -0.17539,-0.22099 -0.2701,-0.39287 h -0.0631 v 2.85881 z m 1.02777,-4.7144 q 0,0.56826 0.16486,0.9962 0.16486,0.42794 0.47705,0.66998 0.31219,0.23852 0.76469,0.23852 0.47003,0 0.78573,-0.24905 0.3157,-0.25255 0.47705,-0.684 0.16487,-0.43146 0.16487,-0.97165 0,-0.53317 -0.16136,-0.95761 -0.15785,-0.42443 -0.47705,-0.66998 -0.3157,-0.245537 -0.78924,-0.245537 -0.45601,0 -0.7717,0.235017 -0.31219,0.23502 -0.47355,0.65595 -0.16135,0.42093 -0.16135,0.98216 z"
           id="path1984" />
        <path
           style="color:#000000;-inkscape-font-specification:'Inter, Medium';fill:#000000;fill-opacity:1;stroke:none;-inkscape-stroke:none"
           d="m 123.67578,98.847656 c -0.3492,0 -0.6408,0.05849 -0.87109,0.185547 -0.21606,0.116721 -0.38949,0.255231 -0.51758,0.419922 -0.049,0.06305 -0.0752,0.112349 -0.11523,0.169922 v -0.705078 h -1.28711 v 7.673831 h 0.13086 1.18164 v -2.65821 c 0.0353,0.0488 0.0561,0.0903 0.0977,0.14258 0.13046,0.16438 0.30712,0.30335 0.52539,0.41992 0.23346,0.12329 0.52304,0.17969 0.86524,0.17969 0.45747,0 0.8736,-0.11714 1.23437,-0.35351 v -0.002 c 0.3606,-0.23874 0.64294,-0.57932 0.84571,-1.01172 0.20407,-0.43766 0.30468,-0.95575 0.30468,-1.55273 0,-0.59716 -0.10186,-1.11516 -0.30859,-1.55078 h 0.002 c -0.20293,-0.432759 -0.48796,-0.771761 -0.85156,-1.005861 -0.36292,-0.23366 -0.77908,-0.351563 -1.23633,-0.351563 z m 0,0.265625 c 0.41268,0 0.77188,0.102618 1.0918,0.308594 0.31923,0.205535 0.5706,0.499466 0.75586,0.894535 v 0.002 c 0.18613,0.3922 0.28125,0.87009 0.28125,1.4375 0,0.56758 -0.0932,1.04657 -0.27735,1.44141 -0.18518,0.39492 -0.43692,0.69214 -0.7539,0.90234 -0.3174,0.20795 -0.67546,0.3125 -1.08789,0.3125 -0.3118,0 -0.55758,-0.0543 -0.74024,-0.15039 h -0.002 c -0.19252,-0.10304 -0.3383,-0.21969 -0.44141,-0.34961 -0.11375,-0.14333 -0.19976,-0.26966 -0.25781,-0.375 l -0.0371,-0.0684 h -0.27344 v 2.85742 h -0.78515 v -7.142576 h 0.75976 v 0.873046 h 0.29883 l 0.0371,-0.06836 c 0.0558,-0.102956 0.1404,-0.227671 0.25195,-0.371094 0.10108,-0.129959 0.24471,-0.248466 0.43555,-0.351562 0.17661,-0.09744 0.42454,-0.152344 0.74414,-0.152344 z m -0.22461,0.626953 c -0.32673,0 -0.61663,0.08487 -0.85156,0.259766 v 0.002 c -0.2297,0.17292 -0.40274,0.41333 -0.51758,0.71289 -0.1146,0.29897 -0.16992,0.64247 -0.16992,1.0293 0,0.39163 0.0569,0.7413 0.17383,1.04492 0.11697,0.30363 0.29048,0.54898 0.51953,0.72657 0.23263,0.17773 0.52079,0.26562 0.8457,0.26562 0.33672,0 0.63166,-0.0915 0.86719,-0.27734 0.23058,-0.18446 0.40501,-0.43402 0.51953,-0.74024 0.11648,-0.30483 0.17188,-0.64594 0.17188,-1.01953 0,-0.36879 -0.0558,-0.70375 -0.16993,-1.00391 -0.11231,-0.30065 -0.28722,-0.54745 -0.51953,-0.72656 -0.23577,-0.183368 -0.53058,-0.273436 -0.86914,-0.273436 z m 0,0.263676 c 0.29283,0 0.52187,0.0747 0.70703,0.21875 h 0.002 c 0.19195,0.14766 0.33561,0.34787 0.43359,0.61132 0.10103,0.26577 0.15234,0.56806 0.15234,0.91016 0,0.34667 -0.0529,0.65534 -0.15625,0.92578 -0.10061,0.26905 -0.24519,0.47468 -0.43554,0.62696 -0.1854,0.14626 -0.41314,0.2207 -0.70313,0.2207 -0.2777,0 -0.50024,-0.0714 -0.68359,-0.21094 -0.1872,-0.14514 -0.3327,-0.34632 -0.43555,-0.61328 -0.10284,-0.26696 -0.15625,-0.58317 -0.15625,-0.94922 0,-0.36147 0.0518,-0.67132 0.15235,-0.93359 0.10031,-0.26168 0.24313,-0.45722 0.42968,-0.59766 0.18599,-0.13846 0.41208,-0.20898 0.69336,-0.20898 z"
           id="path1986" />
      </g>
      <g
         id="path1859"
         style="fill:#000000;fill-opacity:1">
        <path
           style="color:#000000;-inkscape-font-specification:'Inter, Medium';fill:#000000;fill-opacity:1;stroke:none;-inkscape-stroke:none"
           d="m 127.11273,106.45936 v -7.408337 h 1.02426 v 0.873426 h 0.0877 q 0.0912,-0.168371 0.26308,-0.389358 0.17187,-0.220988 0.47705,-0.385851 0.30517,-0.168371 0.80678,-0.168371 0.65243,0 1.16456,0.329727 0.51213,0.329727 0.80327,0.950594 0.29465,0.62087 0.29465,1.4943 0,0.87342 -0.29114,1.4978 -0.29114,0.62087 -0.79976,0.95761 -0.50862,0.33324 -1.16106,0.33324 -0.49108,0 -0.80327,-0.16487 -0.30868,-0.16486 -0.48407,-0.38585 -0.17539,-0.22099 -0.27009,-0.39287 h -0.0631 v 2.85881 z m 1.02777,-4.7144 q 0,0.56826 0.16486,0.9962 0.16487,0.42794 0.47705,0.66998 0.31219,0.23852 0.76469,0.23852 0.47004,0 0.78573,-0.24905 0.3157,-0.25255 0.47706,-0.684 0.16486,-0.43146 0.16486,-0.97165 0,-0.53317 -0.16136,-0.95761 -0.15785,-0.42443 -0.47705,-0.66998 -0.31569,-0.245537 -0.78924,-0.245537 -0.456,0 -0.7717,0.235017 -0.31219,0.23502 -0.47354,0.65595 -0.16136,0.42093 -0.16136,0.98216 z"
           id="path1990" />
        <path
           style="color:#000000;-inkscape-font-specification:'Inter, Medium';fill:#000000;fill-opacity:1;stroke:none;-inkscape-stroke:none"
           d="m 129.77148,98.847656 c -0.3492,0 -0.6408,0.05849 -0.87109,0.185547 -0.21538,0.11656 -0.38978,0.255603 -0.51758,0.419922 -0.0484,0.06222 -0.0737,0.111088 -0.11328,0.167969 v -0.703125 h -1.28906 v 7.673831 h 0.13281 1.17969 v -2.65821 c 0.0353,0.0489 0.0561,0.0902 0.0977,0.14258 0.13047,0.16438 0.30713,0.30335 0.5254,0.41992 h 0.002 c 0.23345,0.12329 0.52109,0.17969 0.86328,0.17969 0.45748,0 0.87361,-0.11714 1.23437,-0.35351 v -0.002 c 0.3606,-0.23874 0.6449,-0.57932 0.84766,-1.01172 0.20408,-0.43766 0.30274,-0.95575 0.30274,-1.55273 0,-0.59716 -0.0999,-1.11516 -0.30665,-1.55078 -0.20293,-0.432759 -0.48795,-0.771761 -0.85156,-1.005861 -0.36292,-0.23366 -0.77909,-0.351563 -1.23633,-0.351563 z m 0,0.265625 c 0.41267,0 0.77383,0.102618 1.09375,0.308594 0.31924,0.205535 0.56865,0.499466 0.75391,0.894535 v 0.002 c 0.18613,0.3922 0.2832,0.87009 0.2832,1.4375 0,0.56758 -0.0952,1.04657 -0.27929,1.44141 -0.18519,0.39492 -0.43497,0.69214 -0.75196,0.90234 -0.31739,0.20795 -0.6774,0.3125 -1.08984,0.3125 -0.31258,0 -0.55744,-0.0538 -0.74023,-0.15039 -0.19331,-0.10324 -0.33997,-0.21934 -0.44336,-0.34961 -0.11376,-0.14333 -0.19978,-0.26966 -0.25782,-0.375 l -0.0371,-0.0684 h -0.27343 v 2.85742 h -0.78516 v -7.142576 h 0.75977 v 0.873046 h 0.29882 l 0.0391,-0.06836 c 0.0558,-0.102956 0.13845,-0.227671 0.25,-0.371094 0.10107,-0.129956 0.2447,-0.248466 0.43554,-0.351562 h 0.002 c 0.1766,-0.09744 0.42258,-0.152344 0.74218,-0.152344 z m -0.22461,0.626953 c -0.32672,0 -0.61467,0.08487 -0.8496,0.259766 h -0.002 v 0.002 c -0.22969,0.17292 -0.40275,0.41333 -0.51758,0.71289 -0.1146,0.29897 -0.16992,0.64247 -0.16992,1.0293 0,0.39163 0.0569,0.7413 0.17383,1.04492 0.11698,0.30363 0.29049,0.54898 0.51953,0.72657 0.23263,0.17773 0.52079,0.26562 0.8457,0.26562 0.33673,0 0.63167,-0.0915 0.86719,-0.27734 h 0.002 c 0.23057,-0.18446 0.40305,-0.43402 0.51757,-0.74024 0.11648,-0.30483 0.17383,-0.64595 0.17383,-1.01953 0,-0.36809 -0.0562,-0.70223 -0.16992,-1.00195 v -0.002 c -0.1123,-0.30117 -0.28693,-0.54723 -0.51953,-0.72656 -0.23576,-0.18337 -0.53253,-0.273436 -0.8711,-0.273436 z m 0,0.263676 c 0.29284,0 0.52383,0.0747 0.70899,0.21875 0.19196,0.14766 0.33561,0.34787 0.43359,0.61132 0.10104,0.26577 0.15235,0.56806 0.15235,0.91016 0,0.34667 -0.0529,0.65534 -0.15625,0.92578 -0.10063,0.26905 -0.24519,0.47468 -0.43555,0.62696 -0.18539,0.14625 -0.41313,0.2207 -0.70313,0.2207 -0.27842,0 -0.49996,-0.0707 -0.68359,-0.21094 -0.18719,-0.14514 -0.33074,-0.34632 -0.43359,-0.61328 -0.10285,-0.26696 -0.15625,-0.58317 -0.15625,-0.94922 0,-0.36147 0.0518,-0.67132 0.15234,-0.93359 0.10031,-0.26168 0.24313,-0.45722 0.42969,-0.59766 0.18572,-0.13775 0.41086,-0.20898 0.6914,-0.20898 z"
           id="path1992" />
      </g>
    </g>
  </g>
</svg>
